<svg xmlns="http://www.w3.org/2000/svg" width="11" height="16" viewBox="0 0 11 20" fill="none">
  <path fill-rule="evenodd" clip-rule="evenodd" d="M8.32971 18.6725V19.5703H2.47034V18.6725C2.47034 18.1788 2.87432 17.7748 3.36807 17.7748H4.62221V14.5182H6.1778V17.7748H7.43194C7.92569 17.7748 8.32967 18.1788 8.32967 18.6725H8.32971ZM8.60928 1.9309H2.1926C2.14174 1.9309 2.09846 1.97328 2.09846 2.02336V9.08395C2.09846 9.13441 2.14178 9.17695 2.1926 9.17695H8.60928C8.65823 9.17695 8.70155 9.13441 8.70155 9.08395V2.02336C8.70155 1.97328 8.65827 1.9309 8.60928 1.9309ZM10.234 1.23969V13.1613C10.234 13.6068 9.86952 13.9713 9.42397 13.9713H1.37604C0.930532 13.9713 0.56604 13.6068 0.56604 13.1613V1.23969C0.56604 0.79418 0.930532 0.429688 1.37604 0.429688H9.42397C9.86952 0.429688 10.234 0.79418 10.234 1.23969ZM3.53354 12.4702C3.53354 12.3192 3.41112 12.1968 3.2601 12.1968H2.19811C2.04709 12.1968 1.92467 12.3192 1.92467 12.4702C1.92467 12.6212 2.04709 12.7436 2.19811 12.7436H3.2601C3.41112 12.7436 3.53354 12.6212 3.53354 12.4702ZM3.63241 10.6971C3.63241 10.6035 3.55581 10.5269 3.46217 10.5269H1.99608C1.90245 10.5269 1.82585 10.6035 1.82585 10.6971V11.1643C1.82585 11.258 1.90245 11.3346 1.99608 11.3346H3.46217C3.55581 11.3346 3.63241 11.258 3.63241 11.1643V10.6971ZM6.20444 12.4702C6.20444 12.3192 6.08202 12.1968 5.931 12.1968H4.86901C4.71799 12.1968 4.59557 12.3192 4.59557 12.4702C4.59557 12.6212 4.71799 12.7436 4.86901 12.7436H5.931C6.08202 12.7436 6.20444 12.6212 6.20444 12.4702ZM6.30331 10.6971C6.30331 10.6035 6.2267 10.5269 6.13303 10.5269H4.66694C4.57331 10.5269 4.49666 10.6035 4.49666 10.6971V11.1643C4.49666 11.258 4.57327 11.3346 4.66694 11.3346H6.13303C6.22667 11.3346 6.30331 11.258 6.30331 11.1643V10.6971ZM8.87534 12.4702C8.87534 12.3192 8.75291 12.1968 8.6019 12.1968H7.53991C7.38889 12.1968 7.26647 12.3192 7.26647 12.4702C7.26647 12.6212 7.38889 12.7436 7.53991 12.7436H8.6019C8.75291 12.7436 8.87534 12.6212 8.87534 12.4702ZM8.9742 10.6971C8.9742 10.6035 8.8976 10.5269 8.80397 10.5269H7.33788C7.24424 10.5269 7.16764 10.6035 7.16764 10.6971V11.1643C7.16764 11.258 7.24424 11.3346 7.33788 11.3346H8.80397C8.8976 11.3346 8.9742 11.258 8.9742 11.1643V10.6971ZM9.24756 2.02332C9.24756 1.67102 8.96139 1.38391 8.60928 1.38391H2.1926C1.84049 1.38391 1.55245 1.67102 1.55245 2.02332V9.08391C1.55245 9.43656 1.84053 9.72371 2.1926 9.72371H8.60928C8.96135 9.72371 9.24756 9.4366 9.24756 9.08391V2.02332Z" fill="white"/>
</svg>