<svg xmlns="http://www.w3.org/2000/svg" width="21" height="20" viewBox="0 0 21 20" fill="none">
  <path fill-rule="evenodd" clip-rule="evenodd" d="M13.1296 18.6725V19.5703H7.27026V18.6725C7.27026 18.1788 7.67425 17.7748 8.168 17.7748H9.42214V14.5182H10.9777V17.7748H12.2319C12.7256 17.7748 13.1296 18.1788 13.1296 18.6725H13.1296ZM13.4092 1.9309H6.99253C6.94167 1.9309 6.89839 1.97328 6.89839 2.02336V9.08395C6.89839 9.13441 6.94171 9.17695 6.99253 9.17695H13.4092C13.4582 9.17695 13.5015 9.13441 13.5015 9.08395V2.02336C13.5015 1.97328 13.4582 1.9309 13.4092 1.9309ZM15.0339 1.23969V13.1613C15.0339 13.6068 14.6694 13.9713 14.2239 13.9713H6.17597C5.73046 13.9713 5.36597 13.6068 5.36597 13.1613V1.23969C5.36597 0.79418 5.73046 0.429688 6.17597 0.429688H14.2239C14.6694 0.429688 15.0339 0.79418 15.0339 1.23969ZM8.33347 12.4702C8.33347 12.3192 8.21105 12.1968 8.06003 12.1968H6.99804C6.84702 12.1968 6.7246 12.3192 6.7246 12.4702C6.7246 12.6212 6.84702 12.7436 6.99804 12.7436H8.06003C8.21105 12.7436 8.33347 12.6212 8.33347 12.4702ZM8.43233 10.6971C8.43233 10.6035 8.35573 10.5269 8.2621 10.5269H6.79601C6.70237 10.5269 6.62577 10.6035 6.62577 10.6971V11.1643C6.62577 11.258 6.70237 11.3346 6.79601 11.3346H8.2621C8.35573 11.3346 8.43233 11.258 8.43233 11.1643V10.6971ZM11.0044 12.4702C11.0044 12.3192 10.8819 12.1968 10.7309 12.1968H9.66894C9.51792 12.1968 9.3955 12.3192 9.3955 12.4702C9.3955 12.6212 9.51792 12.7436 9.66894 12.7436H10.7309C10.8819 12.7436 11.0044 12.6212 11.0044 12.4702ZM11.1032 10.6971C11.1032 10.6035 11.0266 10.5269 10.933 10.5269H9.46687C9.37323 10.5269 9.29659 10.6035 9.29659 10.6971V11.1643C9.29659 11.258 9.37319 11.3346 9.46687 11.3346H10.933C11.0266 11.3346 11.1032 11.258 11.1032 11.1643V10.6971ZM13.6753 12.4702C13.6753 12.3192 13.5528 12.1968 13.4018 12.1968H12.3398C12.1888 12.1968 12.0664 12.3192 12.0664 12.4702C12.0664 12.6212 12.1888 12.7436 12.3398 12.7436H13.4018C13.5528 12.7436 13.6753 12.6212 13.6753 12.4702ZM13.7741 10.6971C13.7741 10.6035 13.6975 10.5269 13.6039 10.5269H12.1378C12.0442 10.5269 11.9676 10.6035 11.9676 10.6971V11.1643C11.9676 11.258 12.0442 11.3346 12.1378 11.3346H13.6039C13.6975 11.3346 13.7741 11.258 13.7741 11.1643V10.6971ZM14.0475 2.02332C14.0475 1.67102 13.7613 1.38391 13.4092 1.38391H6.99253C6.64042 1.38391 6.35237 1.67102 6.35237 2.02332V9.08391C6.35237 9.43656 6.64046 9.72371 6.99253 9.72371H13.4092C13.7613 9.72371 14.0475 9.4366 14.0475 9.08391V2.02332Z" fill="#DC4A17"/>
</svg>