<svg xmlns="http://www.w3.org/2000/svg" width="21" height="20" viewBox="0 0 21 20" fill="none">
  <path d="M13.5964 0H6.83977C5.69109 0 4.71509 0.936609 4.71509 2.08497V17.9174C4.71509 19.0658 5.67044 20 6.81912 20L13.5868 19.9927C14.7353 19.9927 15.675 19.0583 15.675 17.9098L15.6848 2.08386C15.6847 0.931367 14.7496 0 13.5964 0ZM9.24198 1.25003H11.2022C11.3744 1.25003 11.5147 1.38982 11.5147 1.5625C11.5147 1.73517 11.3744 1.87497 11.2022 1.87497H9.24198C9.0693 1.87497 8.92951 1.73517 8.92951 1.5625C8.92951 1.38982 9.0693 1.25003 9.24198 1.25003ZM8.06407 1.34947C8.17987 1.23383 8.39067 1.23224 8.50632 1.34947C8.5643 1.4073 8.59861 1.48847 8.59861 1.57139C8.59861 1.65273 8.5643 1.73374 8.50632 1.79173C8.44866 1.84971 8.36716 1.88386 8.28599 1.88386C8.20323 1.88386 8.12364 1.84971 8.06407 1.79173C8.0064 1.7339 7.97352 1.65273 7.97352 1.57139C7.97336 1.48847 8.0064 1.4073 8.06407 1.34947ZM10.159 19.3806C9.6434 19.3806 9.22403 18.9609 9.22403 18.4454C9.22403 17.9298 9.6434 17.5103 10.159 17.5103C10.6747 17.5103 11.0941 17.9298 11.0941 18.4454C11.0941 18.9609 10.6745 19.3806 10.159 19.3806ZM14.7148 16.8747H5.8088V2.96884H14.7148V16.8747Z" fill="white"/>
</svg>