<svg xmlns="http://www.w3.org/2000/svg" width="21" height="20" viewBox="0 0 21 20" fill="none">
  <path d="M13.8964 0H7.13982C5.99114 0 5.01514 0.936609 5.01514 2.08497V17.9174C5.01514 19.0658 5.97049 20 7.11917 20L13.8869 19.9927C15.0354 19.9927 15.975 19.0583 15.975 17.9098L15.9849 2.08386C15.9847 0.931367 15.0497 0 13.8964 0ZM9.54203 1.25003H11.5023C11.6745 1.25003 11.8148 1.38982 11.8148 1.5625C11.8148 1.73517 11.6745 1.87497 11.5023 1.87497H9.54203C9.36935 1.87497 9.22956 1.73517 9.22956 1.5625C9.22956 1.38982 9.36935 1.25003 9.54203 1.25003ZM8.36412 1.34947C8.47992 1.23383 8.69072 1.23224 8.80637 1.34947C8.86435 1.4073 8.89866 1.48847 8.89866 1.57139C8.89866 1.65273 8.86435 1.73374 8.80637 1.79173C8.74871 1.84971 8.66721 1.88386 8.58604 1.88386C8.50327 1.88386 8.42369 1.84971 8.36412 1.79173C8.30645 1.7339 8.27357 1.65273 8.27357 1.57139C8.27341 1.48847 8.30645 1.4073 8.36412 1.34947ZM10.4591 19.3806C9.94345 19.3806 9.52408 18.9609 9.52408 18.4454C9.52408 17.9298 9.94345 17.5103 10.4591 17.5103C10.9747 17.5103 11.3941 17.9298 11.3941 18.4454C11.3941 18.9609 10.9746 19.3806 10.4591 19.3806ZM15.0149 16.8747H6.10885V2.96884H15.0149V16.8747Z" fill="#DC4A17"/>
</svg>