<svg xmlns="http://www.w3.org/2000/svg" width="21" height="20" viewBox="0 0 21 20" fill="none">
  <g clip-path="url(#clip0_34_79)">
    <path d="M18.9953 13.1277C17.7708 13.1277 16.5685 12.9362 15.4292 12.5597C14.8709 12.3693 14.1846 12.544 13.8439 12.8939L11.5951 14.5915C8.98713 13.1994 7.38067 11.5934 6.00755 9.00505L7.6552 6.81484C8.08327 6.38734 8.23682 5.76286 8.05286 5.17693C7.67473 4.03161 7.48265 2.8299 7.48265 1.6049C7.4827 0.719948 6.76275 0 5.87786 0H2.20494C1.32005 0 0.600098 0.719948 0.600098 1.60484C0.600098 11.7481 8.85208 20 18.9953 20C19.8802 20 20.6002 19.2801 20.6002 18.3952V14.7325C20.6001 13.8477 19.8801 13.1277 18.9953 13.1277Z" fill="#DC4A17"/>
  </g>
  <defs>
    <clipPath id="clip0_34_79">
      <rect width="20" height="20" fill="white" transform="translate(0.600098)"/>
    </clipPath>
  </defs>
</svg>