<svg xmlns="http://www.w3.org/2000/svg" width="21" height="20" viewBox="0 0 21 20" fill="none">
  <path d="M18.5952 13.1277C17.3707 13.1277 16.1684 12.9362 15.0291 12.5597C14.4708 12.3693 13.7845 12.544 13.4438 12.8939L11.195 14.5915C8.58698 13.1994 6.98052 11.5934 5.6074 9.00505L7.25506 6.81484C7.68313 6.38734 7.83667 5.76286 7.65271 5.17693C7.27459 4.03161 7.0825 2.8299 7.0825 1.6049C7.08256 0.719948 6.36261 0 5.47771 0H1.8048C0.919899 0 0.199951 0.719948 0.199951 1.60484C0.199951 11.7481 8.45193 20 18.5952 20C19.4801 20 20.2 19.2801 20.2 18.3952V14.7325C20.2 13.8477 19.48 13.1277 18.5952 13.1277Z" fill="white"/>
</svg>