<svg xmlns="http://www.w3.org/2000/svg" width="21" height="20" viewBox="0 0 21 20" fill="none">
  <g clip-path="url(#clip0_3_66)">
    <path fill-rule="evenodd" clip-rule="evenodd" d="M18.9244 6.56437C19.3444 7.62812 19.575 8.7875 19.575 10C19.575 11.2125 19.3444 12.3719 18.9244 13.4356C17.5363 13.0113 15.9269 12.6844 14.1731 12.485C14.2313 11.6856 14.2625 10.8538 14.2625 10C14.2625 9.14625 14.2313 8.31438 14.1731 7.515C15.9269 7.31563 17.5363 6.98875 18.9244 6.56437ZM1.47564 13.4356C1.05564 12.3719 0.825012 11.2125 0.825012 10C0.825012 8.7875 1.05564 7.62812 1.47564 6.56437C2.86376 6.98875 4.47314 7.31563 6.22689 7.515C6.16876 8.31438 6.13751 9.14625 6.13751 10C6.13751 10.8538 6.16876 11.6856 6.22689 12.485C4.47314 12.6844 2.86376 13.0113 1.47564 13.4356ZM12.93 12.3675C12.0475 12.3006 11.1344 12.265 10.2 12.265C9.26564 12.265 8.35251 12.3006 7.47001 12.3675C7.41626 11.6063 7.38751 10.8138 7.38751 10C7.38751 9.18625 7.41626 8.39375 7.47001 7.6325C8.35251 7.69937 9.26564 7.735 10.2 7.735C11.1344 7.735 12.0475 7.69937 12.93 7.6325C12.9838 8.39375 13.0125 9.18625 13.0125 10C13.0125 10.8138 12.9838 11.6063 12.93 12.3675ZM18.3488 14.6356C17.1563 16.7269 15.1819 18.315 12.825 19.0019C13.375 17.6863 13.8075 15.8838 14.0494 13.7988C15.6263 13.9775 17.08 14.2638 18.3488 14.6356ZM11.2613 19.3156C10.9131 19.355 10.5588 19.375 10.2 19.375C9.84126 19.375 9.48689 19.355 9.13876 19.3156C8.99939 19.0844 8.86626 18.8188 8.73939 18.5238C8.21876 17.3131 7.81751 15.6337 7.59189 13.6825C8.43564 13.6194 9.30751 13.5869 10.2 13.5869C11.0925 13.5869 11.9644 13.6194 12.8081 13.6825C12.5825 15.6337 12.1813 17.3131 11.6606 18.5238C11.5338 18.8188 11.4006 19.0844 11.2613 19.3156ZM7.57501 19.0019C5.21814 18.315 3.24376 16.7269 2.05126 14.6356C3.32001 14.2638 4.77376 13.9775 6.35064 13.7988C6.59251 15.8838 7.02501 17.6863 7.57501 19.0019ZM2.05126 5.36438C3.24376 3.27313 5.21814 1.685 7.57501 0.998125C7.02501 2.31375 6.59251 4.11625 6.35064 6.20125C4.77376 6.0225 3.32001 5.73625 2.05126 5.36438ZM9.13876 0.684376C9.48689 0.645001 9.84126 0.625 10.2 0.625C10.5588 0.625 10.9131 0.645001 11.2613 0.684376C11.4006 0.915626 11.5338 1.18125 11.6606 1.47625C12.1813 2.68687 12.5825 4.36625 12.8081 6.3175C11.9644 6.38063 11.0925 6.41313 10.2 6.41313C9.30751 6.41313 8.43564 6.38063 7.59189 6.3175C7.81751 4.36625 8.21876 2.68687 8.73939 1.47625C8.86626 1.18125 8.99939 0.915626 9.13876 0.684376ZM12.825 0.998125C15.1819 1.685 17.1563 3.27313 18.3488 5.36438C17.08 5.73625 15.6263 6.0225 14.0494 6.20125C13.8075 4.11625 13.375 2.31375 12.825 0.998125Z" fill="#DC4A17"/>
  </g>
  <defs>
    <clipPath id="clip0_3_66">
      <rect width="20" height="20" fill="white" transform="translate(0.200012)"/>
    </clipPath>
  </defs>
</svg>