<svg xmlns="http://www.w3.org/2000/svg" width="20" height="20" viewBox="0 0 20 20" fill="none">
  <path fill-rule="evenodd" clip-rule="evenodd" d="M18.9243 6.56437C19.3443 7.62812 19.575 8.7875 19.575 10C19.575 11.2125 19.3443 12.3719 18.9243 13.4356C17.5362 13.0113 15.9268 12.6844 14.1731 12.485C14.2312 11.6856 14.2625 10.8538 14.2625 10C14.2625 9.14625 14.2312 8.31438 14.1731 7.515C15.9268 7.31563 17.5362 6.98875 18.9243 6.56437ZM1.47558 13.4356C1.05558 12.3719 0.824951 11.2125 0.824951 10C0.824951 8.7875 1.05558 7.62812 1.47558 6.56437C2.8637 6.98875 4.47307 7.31563 6.22682 7.515C6.1687 8.31438 6.13745 9.14625 6.13745 10C6.13745 10.8538 6.1687 11.6856 6.22682 12.485C4.47307 12.6844 2.8637 13.0113 1.47558 13.4356ZM12.9299 12.3675C12.0474 12.3006 11.1343 12.265 10.2 12.265C9.26558 12.265 8.35245 12.3006 7.46995 12.3675C7.4162 11.6063 7.38745 10.8138 7.38745 10C7.38745 9.18625 7.4162 8.39375 7.46995 7.6325C8.35245 7.69937 9.26558 7.735 10.2 7.735C11.1343 7.735 12.0474 7.69937 12.9299 7.6325C12.9837 8.39375 13.0125 9.18625 13.0125 10C13.0125 10.8138 12.9837 11.6063 12.9299 12.3675ZM18.3487 14.6356C17.1562 16.7269 15.1818 18.315 12.8249 19.0019C13.3749 17.6863 13.8074 15.8838 14.0493 13.7988C15.6262 13.9775 17.08 14.2638 18.3487 14.6356ZM11.2612 19.3156C10.9131 19.355 10.5587 19.375 10.2 19.375C9.8412 19.375 9.48683 19.355 9.1387 19.3156C8.99933 19.0844 8.8662 18.8188 8.73933 18.5238C8.2187 17.3131 7.81745 15.6337 7.59183 13.6825C8.43558 13.6194 9.30745 13.5869 10.2 13.5869C11.0925 13.5869 11.9643 13.6194 12.8081 13.6825C12.5824 15.6337 12.1812 17.3131 11.6606 18.5238C11.5337 18.8188 11.4006 19.0844 11.2612 19.3156ZM7.57495 19.0019C5.21808 18.315 3.2437 16.7269 2.0512 14.6356C3.31995 14.2638 4.7737 13.9775 6.35058 13.7988C6.59245 15.8838 7.02495 17.6863 7.57495 19.0019ZM2.0512 5.36438C3.2437 3.27313 5.21808 1.685 7.57495 0.998125C7.02495 2.31375 6.59245 4.11625 6.35058 6.20125C4.7737 6.0225 3.31995 5.73625 2.0512 5.36438ZM9.1387 0.684376C9.48683 0.645001 9.8412 0.625 10.2 0.625C10.5587 0.625 10.9131 0.645001 11.2612 0.684376C11.4006 0.915626 11.5337 1.18125 11.6606 1.47625C12.1812 2.68687 12.5824 4.36625 12.8081 6.3175C11.9643 6.38063 11.0925 6.41313 10.2 6.41313C9.30745 6.41313 8.43558 6.38063 7.59183 6.3175C7.81745 4.36625 8.2187 2.68687 8.73933 1.47625C8.8662 1.18125 8.99933 0.915626 9.1387 0.684376ZM12.8249 0.998125C15.1818 1.685 17.1562 3.27313 18.3487 5.36438C17.08 5.73625 15.6262 6.0225 14.0493 6.20125C13.8074 4.11625 13.3749 2.31375 12.8249 0.998125Z" fill="white"/>
</svg>