<svg xmlns="http://www.w3.org/2000/svg" width="21" height="20" viewBox="0 0 21 20" fill="none">
  <path d="M10.2025 0H10.1975C4.6837 0 0.199951 4.485 0.199951 10C0.199951 12.1875 0.904951 14.215 2.1037 15.8612L0.857451 19.5763L4.7012 18.3475C6.28245 19.395 8.1687 20 10.2025 20C15.7162 20 20.2 15.5138 20.2 10C20.2 4.48625 15.7162 0 10.2025 0ZM16.0212 14.1213C15.78 14.8025 14.8225 15.3675 14.0587 15.5325C13.5362 15.6437 12.8537 15.7325 10.5562 14.78C7.61745 13.5625 5.72495 10.5763 5.57745 10.3825C5.4362 10.1887 4.38995 8.80125 4.38995 7.36625C4.38995 5.93125 5.1187 5.2325 5.41245 4.9325C5.6537 4.68625 6.05245 4.57375 6.43495 4.57375C6.5587 4.57375 6.66995 4.58 6.76995 4.585C7.0637 4.5975 7.2112 4.615 7.40495 5.07875C7.6462 5.66 8.2337 7.095 8.3037 7.2425C8.37495 7.39 8.4462 7.59 8.3462 7.78375C8.25245 7.98375 8.16995 8.0725 8.02245 8.2425C7.87495 8.4125 7.73495 8.5425 7.58745 8.725C7.45245 8.88375 7.29995 9.05375 7.46995 9.3475C7.63995 9.635 8.22745 10.5937 9.09245 11.3637C10.2087 12.3575 11.1137 12.675 11.4375 12.81C11.6787 12.91 11.9662 12.8863 12.1425 12.6988C12.3662 12.4575 12.6425 12.0575 12.9237 11.6638C13.1237 11.3813 13.3762 11.3462 13.6412 11.4462C13.9112 11.54 15.34 12.2462 15.6337 12.3925C15.9275 12.54 16.1212 12.61 16.1925 12.7338C16.2625 12.8575 16.2625 13.4388 16.0212 14.1213Z" fill="white"/>
</svg>