<svg xmlns="http://www.w3.org/2000/svg" width="21" height="20" viewBox="0 0 21 20" fill="none">
  <g clip-path="url(#clip0_3_88)">
    <path d="M10.8025 0H10.7975C5.2838 0 0.800049 4.485 0.800049 10C0.800049 12.1875 1.50505 14.215 2.7038 15.8612L1.45755 19.5763L5.3013 18.3475C6.88255 19.395 8.7688 20 10.8025 20C16.3163 20 20.8 15.5138 20.8 10C20.8 4.48625 16.3163 0 10.8025 0ZM16.6213 14.1213C16.38 14.8025 15.4225 15.3675 14.6588 15.5325C14.1363 15.6437 13.4538 15.7325 11.1563 14.78C8.21755 13.5625 6.32505 10.5763 6.17755 10.3825C6.0363 10.1887 4.99005 8.80125 4.99005 7.36625C4.99005 5.93125 5.7188 5.2325 6.01255 4.9325C6.2538 4.68625 6.65255 4.57375 7.03505 4.57375C7.1588 4.57375 7.27005 4.58 7.37005 4.585C7.6638 4.5975 7.8113 4.615 8.00505 5.07875C8.2463 5.66 8.8338 7.095 8.9038 7.2425C8.97505 7.39 9.0463 7.59 8.9463 7.78375C8.85255 7.98375 8.77005 8.0725 8.62255 8.2425C8.47505 8.4125 8.33505 8.5425 8.18755 8.725C8.05255 8.88375 7.90005 9.05375 8.07005 9.3475C8.24005 9.635 8.82755 10.5937 9.69255 11.3637C10.8088 12.3575 11.7138 12.675 12.0375 12.81C12.2788 12.91 12.5663 12.8863 12.7425 12.6988C12.9663 12.4575 13.2425 12.0575 13.5238 11.6638C13.7238 11.3813 13.9763 11.3462 14.2413 11.4462C14.5113 11.54 15.94 12.2462 16.2338 12.3925C16.5275 12.54 16.7213 12.61 16.7925 12.7338C16.8625 12.8575 16.8625 13.4388 16.6213 14.1213Z" fill="#DC4A17"/>
  </g>
  <defs>
    <clipPath id="clip0_3_88">
      <rect width="20" height="20" fill="white" transform="translate(0.800049)"/>
    </clipPath>
  </defs>
</svg>