<svg xmlns="http://www.w3.org/2000/svg" width="60" height="61" viewBox="0 0 60 61" fill="none">
  <g clip-path="url(#clip0_148_4996)">
    <path fill-rule="evenodd" clip-rule="evenodd" d="M48.6563 41.1706C48.4031 40.3981 47.6906 39.875 46.875 39.875C46.0594 39.875 45.3469 40.3981 45.0937 41.1706L43.3125 46.6297L37.8563 48.4044C37.0875 48.6556 36.5625 49.3756 36.5625 50.1875C36.5625 50.9994 37.0875 51.7194 37.8563 51.9706L43.3125 53.7453L45.0937 59.2044C45.3469 59.9769 46.0594 60.5 46.875 60.5C47.6906 60.5 48.4031 59.9769 48.6563 59.2044L50.4375 53.7453L55.8937 51.9706C56.6625 51.7194 57.1875 50.9994 57.1875 50.1875C57.1875 49.3756 56.6625 48.6556 55.8937 48.4044L50.4375 46.6297L48.6563 41.1706Z" fill="#FF8244"/>
    <path fill-rule="evenodd" clip-rule="evenodd" d="M0 35.1866C0 36.5562 0.881209 37.7741 2.18433 38.1978L15.9563 42.6734L20.4282 56.4388C20.85 57.7419 22.0688 58.625 23.4375 58.625C24.8062 58.625 26.025 57.7428 26.4468 56.4388L30.9281 42.6734L44.6907 38.1978C45.9938 37.7741 46.875 36.5572 46.875 35.1875C46.875 33.8169 45.9938 32.6009 44.6907 32.1772L30.9281 27.7016L26.4468 13.9363C26.025 12.6322 24.8062 11.75 23.4375 11.75C22.0688 11.75 20.85 12.6331 20.4282 13.9363L15.9563 27.7016L2.18433 32.1772C0.881209 32.6009 0 33.8159 0 35.1866Z" fill="#FF5500"/>
    <path fill-rule="evenodd" clip-rule="evenodd" d="M47.7188 1.79562C47.4656 1.02312 46.7531 0.5 45.9375 0.5C45.1219 0.5 44.4094 1.02312 44.1562 1.79562L41.4562 10.0841L33.1688 12.7794C32.4 13.0306 31.875 13.7506 31.875 14.5625C31.875 15.3744 32.4 16.0944 33.1688 16.3456L41.4562 19.0409L44.1562 27.3294C44.4094 28.1019 45.1219 28.625 45.9375 28.625C46.7531 28.625 47.4656 28.1019 47.7188 27.3294L50.4188 19.0409L58.7062 16.3456C59.475 16.0944 60 15.3744 60 14.5625C60 13.7506 59.475 13.0306 58.7062 12.7794L50.4188 10.0841L47.7188 1.79562Z" fill="#FFD2BD"/>
    <path fill-rule="evenodd" clip-rule="evenodd" d="M7.5 12.6875H5.625C4.59375 12.6875 3.75 13.5275 3.75 14.5625C3.75 15.5975 4.59375 16.4375 5.625 16.4375H7.5V18.3125C7.5 19.3475 8.34375 20.1875 9.375 20.1875C10.4062 20.1875 11.25 19.3475 11.25 18.3125V16.4375H13.125C14.1562 16.4375 15 15.5975 15 14.5625C15 13.5275 14.1562 12.6875 13.125 12.6875H11.25V10.8125C11.25 9.7775 10.4062 8.9375 9.375 8.9375C8.34375 8.9375 7.5 9.7775 7.5 10.8125V12.6875Z" fill="#FF704D"/>
  </g>
  <defs>
    <clipPath id="clip0_148_4996">
      <rect width="60" height="60" fill="white" transform="translate(0 0.5)"/>
    </clipPath>
  </defs>
</svg>