<svg xmlns="http://www.w3.org/2000/svg" width="14" height="13" viewBox="0 0 14 13" fill="none">
  <path d="M6.99999 12.98C6.92429 12.9802 6.85125 12.9546 6.79571 12.9083C6.74009 12.8619 6.70601 12.7984 6.70038 12.7303C6.68356 12.5313 6.23079 7.84144 0.939543 6.76332C0.873039 6.74992 0.81358 6.71655 0.770974 6.66861C0.728359 6.62074 0.705139 6.56119 0.705139 6.49978C0.705139 6.43837 0.728359 6.37882 0.770974 6.33088C0.81358 6.28301 0.873039 6.24965 0.939543 6.23624C6.24183 5.15626 6.69612 0.318637 6.70007 0.269232C6.70586 0.201237 6.74002 0.137754 6.79571 0.091519C6.85133 0.0452912 6.92429 0.0197454 6.99999 0.0200217C7.07577 0.0198352 7.14881 0.045519 7.20443 0.0919126C7.26005 0.138299 7.29405 0.201949 7.29968 0.27004C7.3165 0.46903 7.76927 5.15895 13.0605 6.23707C13.127 6.25041 13.1865 6.28384 13.2291 6.33171C13.2717 6.37965 13.2949 6.4392 13.2949 6.50061C13.2949 6.56195 13.2717 6.62157 13.2291 6.66944C13.1865 6.71731 13.127 6.75075 13.0605 6.76408C7.75816 7.84413 7.30387 12.6817 7.29999 12.7311C7.29405 12.799 7.25989 12.8625 7.20428 12.9087C7.14858 12.9548 7.07562 12.9803 6.99999 12.98ZM5.9922 9.63605C6.79571 5.74088 6.70007 6.66861 6.79571 4.88001C7.28386 3.38583 8.72517 5.47451 11.9146 6.50006C8.74556 5.48107 10.8957 6.23624 6.99999 5.74088C6.38966 7.74998 6.79571 6.33088 5.9922 9.63605Z" fill="#FF5500"/>
</svg>