<svg width="150" height="49" viewBox="0 0 150 49" fill="none" xmlns="http://www.w3.org/2000/svg">
<rect x="0.626482" y="1.48781" width="148.747" height="46.747" rx="6.8913" fill="black"/>
<rect x="0.626482" y="1.48781" width="148.747" height="46.747" rx="6.8913" stroke="#A6A6A6" stroke-width="1.25296"/>
<path d="M30.9539 26.8767C30.9692 25.7241 31.2828 24.594 31.8655 23.5915C32.4483 22.589 33.2814 21.7467 34.2872 21.143C33.6482 20.2521 32.8053 19.5189 31.8253 19.0017C30.8454 18.4845 29.7554 18.1975 28.6419 18.1634C26.2667 17.92 23.964 19.551 22.7536 19.551C21.5198 19.551 19.6563 18.1876 17.6495 18.2279C16.3515 18.2689 15.0865 18.6374 13.9778 19.2975C12.869 19.9577 11.9543 20.887 11.3228 21.9949C8.5873 26.6188 10.6277 33.4145 13.2482 37.1521C14.5592 38.9824 16.0915 41.0268 18.0964 40.9543C20.0583 40.8748 20.7911 39.7329 23.1593 39.7329C25.5055 39.7329 26.193 40.9543 28.2386 40.9082C30.3439 40.8748 31.6703 39.0698 32.9354 37.2223C33.8773 35.9182 34.6022 34.4769 35.0831 32.9517C33.86 32.4467 32.8162 31.6013 32.082 30.521C31.3477 29.4407 30.9554 28.1733 30.9539 26.8767Z" fill="white"/>
<path d="M27.0901 15.7051C28.238 14.3598 28.8035 12.6306 28.6666 10.8848C26.9129 11.0646 25.293 11.8829 24.1296 13.1766C23.5608 13.8086 23.1252 14.5438 22.8476 15.3403C22.57 16.1368 22.4559 16.9789 22.5119 17.8184C23.389 17.8272 24.2568 17.6416 25.0498 17.2756C25.8429 16.9095 26.5405 16.3725 27.0901 15.7051Z" fill="white"/>
<path d="M53.347 12.9834H55.5477C57.4494 12.9834 58.3745 14.1142 58.3745 16.1654C58.3745 18.2166 57.44 19.3613 55.5477 19.3613H53.347V12.9834ZM54.4076 13.8759V18.4689H55.4309C56.6924 18.4689 57.2858 17.7073 57.2858 16.1794C57.2858 14.6422 56.6878 13.8759 55.4309 13.8759H54.4076ZM61.7293 14.3384C63.0189 14.3384 63.9207 15.1748 63.9207 16.5625V17.2027C63.9207 18.6371 63.0189 19.4454 61.7293 19.4454C60.421 19.4454 59.5286 18.6464 59.5286 17.2073V16.5672C59.5286 15.2169 60.4351 14.3384 61.7293 14.3384ZM61.734 15.1748C60.9958 15.1748 60.5752 15.7916 60.5752 16.6186V17.17C60.5752 17.997 60.9677 18.6091 61.734 18.6091C62.4909 18.6091 62.8788 18.0016 62.8788 17.17V16.6186C62.8788 15.7916 62.4722 15.1748 61.734 15.1748ZM71.5368 14.4226L70.2379 19.3613H69.1819L68.1493 15.7168H68.1212L67.1073 19.3613H66.0467L64.6917 14.4226H65.8084L66.6027 18.1885H66.6494L67.6446 14.4226H68.6212L69.6445 18.1885H69.6912L70.4995 14.4226H71.5368ZM72.5647 19.3613V14.4226H73.5833V15.3103H73.6347C73.7609 14.9225 74.1207 14.3478 75.1206 14.3478C76.1158 14.3478 76.784 14.8991 76.784 16.0252V19.3613H75.7467V16.3289C75.7467 15.5766 75.3542 15.2309 74.7701 15.2309C74.0038 15.2309 73.602 15.8196 73.602 16.6186V19.3613H72.5647ZM78.3539 19.3613V12.647H79.3912V19.3613H78.3539ZM82.9516 14.3384C84.2412 14.3384 85.143 15.1748 85.143 16.5625V17.2027C85.143 18.6371 84.2412 19.4454 82.9516 19.4454C81.6433 19.4454 80.7509 18.6464 80.7509 17.2073V16.5672C80.7509 15.2169 81.6573 14.3384 82.9516 14.3384ZM82.9563 15.1748C82.218 15.1748 81.7975 15.7916 81.7975 16.6186V17.17C81.7975 17.997 82.19 18.6091 82.9563 18.6091C83.7132 18.6091 84.101 18.0016 84.101 17.17V16.6186C84.101 15.7916 83.6945 15.1748 82.9563 15.1748ZM87.8296 19.4361C86.8718 19.4361 86.2129 18.8474 86.2129 17.9269C86.2129 17.0531 86.8204 16.4644 87.9604 16.4644H89.208V16.0018C89.208 15.4365 88.8482 15.1701 88.2782 15.1701C87.7175 15.1701 87.4652 15.4038 87.3857 15.7308H86.3998C86.4606 14.9038 87.082 14.3478 88.3109 14.3478C89.3668 14.3478 90.2406 14.787 90.2406 16.0159V19.3613H89.2547V18.7212H89.208C88.9884 19.0997 88.5585 19.4361 87.8296 19.4361ZM88.152 18.6324C88.7407 18.6324 89.208 18.2306 89.208 17.6933V17.1606H88.124C87.5212 17.1606 87.2549 17.4643 87.2549 17.8755C87.2549 18.3895 87.6848 18.6324 88.152 18.6324ZM93.4365 14.3571C94.1327 14.3571 94.6654 14.6655 94.857 15.1655H94.9084V12.647H95.9457V19.3613H94.9364V18.5717H94.885C94.7355 19.0716 94.1421 19.4267 93.4225 19.4267C92.2871 19.4267 91.5489 18.6184 91.5489 17.3148V16.4691C91.5489 15.1655 92.3011 14.3571 93.4365 14.3571ZM93.7262 15.2075C93.0347 15.2075 92.6049 15.7215 92.6049 16.6186V17.1606C92.6049 18.0624 93.0394 18.5764 93.7496 18.5764C94.4505 18.5764 94.9084 18.0671 94.9084 17.226V16.4784C94.9084 15.7168 94.4084 15.2075 93.7262 15.2075ZM101.641 14.3384C102.931 14.3384 103.833 15.1748 103.833 16.5625V17.2027C103.833 18.6371 102.931 19.4454 101.641 19.4454C100.333 19.4454 99.4406 18.6464 99.4406 17.2073V16.5672C99.4406 15.2169 100.347 14.3384 101.641 14.3384ZM101.646 15.1748C100.908 15.1748 100.487 15.7916 100.487 16.6186V17.17C100.487 17.997 100.88 18.6091 101.646 18.6091C102.403 18.6091 102.791 18.0016 102.791 17.17V16.6186C102.791 15.7916 102.384 15.1748 101.646 15.1748ZM105.169 19.3613V14.4226H106.188V15.3103H106.239C106.365 14.9225 106.725 14.3478 107.725 14.3478C108.72 14.3478 109.388 14.8991 109.388 16.0252V19.3613H108.351V16.3289C108.351 15.5766 107.959 15.2309 107.374 15.2309C106.608 15.2309 106.206 15.8196 106.206 16.6186V19.3613H105.169ZM113.402 14.4553V13.2217H114.416V14.4553H115.523V15.2683H114.416V17.8895C114.416 18.4268 114.617 18.5764 115.173 18.5764C115.313 18.5764 115.5 18.567 115.579 18.5577V19.352C115.495 19.366 115.149 19.394 114.916 19.394C113.715 19.394 113.388 18.9642 113.388 17.9736V15.2683H112.636V14.4553H113.402ZM116.831 19.3613V12.647H117.864V15.3103H117.915C118.023 14.9599 118.425 14.3478 119.415 14.3478C120.378 14.3478 121.065 14.9038 121.065 16.0299V19.3613H120.032V16.3336C120.032 15.5813 119.616 15.2309 119.028 15.2309C118.285 15.2309 117.864 15.8149 117.864 16.6186V19.3613H116.831ZM124.546 19.4454C123.2 19.4454 122.364 18.6184 122.364 17.226V16.5579C122.364 15.1561 123.279 14.3384 124.485 14.3384C125.723 14.3384 126.597 15.1982 126.597 16.5579V17.1372H123.392V17.3802C123.392 18.0904 123.812 18.6137 124.541 18.6137C125.083 18.6137 125.457 18.3568 125.527 18.0484H126.541C126.48 18.6184 125.877 19.4454 124.546 19.4454ZM123.392 16.4597H125.583V16.3943C125.583 15.6514 125.148 15.1561 124.49 15.1561C123.831 15.1561 123.392 15.6514 123.392 16.3943V16.4597Z" fill="white"/>
<path d="M54.8515 36.3613H52.6928L57.0849 23.6055H59.4585L63.8413 36.3613H61.5985L60.4678 32.829H55.9916L54.8515 36.3613ZM58.2811 25.8109H58.197L56.4682 31.2029H59.9912L58.2811 25.8109ZM69.7989 36.5015C68.5186 36.5015 67.5468 35.8941 67.0234 34.9876H66.9487V39.6414H64.8741V26.4838H66.8926V27.9322H66.9674C67.5094 26.9884 68.5186 26.3529 69.8456 26.3529C72.0603 26.3529 73.6396 28.0257 73.6396 30.9787V31.8571C73.6396 34.7914 72.079 36.5015 69.7989 36.5015ZM69.3223 34.7914C70.6399 34.7914 71.537 33.7354 71.537 31.745V31.0534C71.537 29.1377 70.696 28.0444 69.2849 28.0444C67.8364 28.0444 66.93 29.2218 66.93 31.0441V31.745C66.93 33.6139 67.8458 34.7914 69.3223 34.7914ZM80.3448 36.5015C79.0646 36.5015 78.0927 35.8941 77.5694 34.9876H77.4946V39.6414H75.4201V26.4838H77.4386V27.9322H77.5133C78.0553 26.9884 79.0646 26.3529 80.3915 26.3529C82.6063 26.3529 84.1856 28.0257 84.1856 30.9787V31.8571C84.1856 34.7914 82.625 36.5015 80.3448 36.5015ZM79.8682 34.7914C81.1859 34.7914 82.083 33.7354 82.083 31.745V31.0534C82.083 29.1377 81.2419 28.0444 79.8308 28.0444C78.3824 28.0444 77.4759 29.2218 77.4759 31.0441V31.745C77.4759 33.6139 78.3917 34.7914 79.8682 34.7914ZM88.4847 32.8196H90.5592C90.6527 33.9223 91.6246 34.8661 93.4281 34.8661C95.0822 34.8661 96.0634 34.0905 96.0634 32.885C96.0634 31.9132 95.4092 31.3898 94.0449 31.0628L91.9516 30.5395C90.3069 30.1563 88.8304 29.1751 88.8304 27.1005C88.8304 24.6615 90.9611 23.3252 93.4375 23.3252C95.9139 23.3252 97.9791 24.6615 98.0258 27.0445H95.9886C95.8952 25.9605 95.0635 25.0634 93.4094 25.0634C91.9516 25.0634 90.9611 25.7549 90.9611 26.9417C90.9611 27.7734 91.5405 28.3714 92.7273 28.6424L94.8112 29.1564C96.7269 29.6237 98.1847 30.5301 98.1847 32.6981C98.1847 35.2026 96.1568 36.6136 93.2693 36.6136C89.7182 36.6136 88.5314 34.5391 88.4847 32.8196ZM100.713 26.4838V24.0821H102.75V26.4838H104.675V28.1472H102.75V33.4177C102.75 34.4923 103.152 34.7914 104.264 34.7914C104.441 34.7914 104.61 34.7914 104.731 34.7727V36.3613C104.563 36.3894 104.17 36.4267 103.75 36.4267C101.348 36.4267 100.685 35.567 100.685 33.5859V28.1472H99.3203V26.4838H100.713ZM110.277 26.3156C113.118 26.3156 114.66 28.3154 114.66 31.0067V31.801C114.66 34.5858 113.128 36.5295 110.277 36.5295C107.427 36.5295 105.876 34.5858 105.876 31.801V31.0067C105.876 28.3247 107.437 26.3156 110.277 26.3156ZM110.277 27.979C108.736 27.979 107.969 29.2405 107.969 31.0347V31.7917C107.969 33.5579 108.726 34.8568 110.277 34.8568C111.829 34.8568 112.576 33.5672 112.576 31.7917V31.0347C112.576 29.2312 111.819 27.979 110.277 27.979ZM116.413 36.3613V26.4838H118.487V27.7827H118.562C118.814 27.166 119.552 26.3436 120.926 26.3436C121.197 26.3436 121.431 26.3623 121.627 26.3997V28.2313C121.449 28.1845 121.085 28.1565 120.739 28.1565C119.076 28.1565 118.515 29.1845 118.515 30.5114V36.3613H116.413ZM126.659 36.5295C124.015 36.5295 122.333 34.782 122.333 31.8571V30.8572C122.333 28.1004 123.977 26.3156 126.575 26.3156C129.211 26.3156 130.799 28.1659 130.799 30.9506V31.8945H124.379V32.1281C124.379 33.7915 125.276 34.8942 126.688 34.8942C127.743 34.8942 128.463 34.3709 128.715 33.5205H130.687C130.388 35.1185 129.098 36.5295 126.659 36.5295ZM124.379 30.446H128.771V30.4273C128.771 29.0256 127.902 27.9229 126.585 27.9229C125.248 27.9229 124.379 29.0256 124.379 30.4273V30.446Z" fill="white"/>
</svg>
