<svg xmlns="http://www.w3.org/2000/svg" width="12" height="13" viewBox="0 0 12 13" fill="none">
  <g clip-path="url(#clip0_344_4866)">
    <path d="M5.41531 0.303319L5.4146 0.304025L0.897167 4.82146C0.545908 5.17585 0.548449 5.7479 0.902842 6.09916C0.93085 6.12691 0.960637 6.15281 0.992033 6.17669C1.36983 6.42998 1.87508 6.3747 2.18915 6.04569L4.69181 3.55206C4.82451 3.4195 4.93578 3.2671 5.02159 3.10032L5.16614 2.82475L5.16615 11.7015C5.14703 12.1561 5.45786 12.5584 5.90249 12.6547C6.39503 12.7346 6.85908 12.4001 6.93896 11.9075C6.94734 11.8558 6.95121 11.8035 6.95053 11.7512V2.84282L7.04088 3.03707C7.1294 3.22661 7.25015 3.39931 7.39776 3.54754L9.8959 6.04569C10.21 6.3747 10.7152 6.42998 11.093 6.17669C11.4956 5.8819 11.583 5.31657 11.2882 4.91395C11.2644 4.88143 11.2384 4.85051 11.2105 4.82146L6.69304 0.304025C6.3404 -0.0489856 5.76835 -0.0492955 5.41531 0.303319Z" fill="white"/>
  </g>
  <defs>
    <clipPath id="clip0_344_4866">
      <rect width="11" height="13" fill="white" transform="translate(0.5)"/>
    </clipPath>
  </defs>
</svg>