<svg xmlns="http://www.w3.org/2000/svg" width="20" height="20" viewBox="0 0 20 20" fill="none">
  <g clip-path="url(#clip0_20_4399)">
    <path d="M8.24203 6.05469C3.71887 6.05469 4.11365e-05 9.16512 4.11365e-05 12.9885C4.11365e-05 14.5168 0.592854 16.0701 1.68 17.2739L0.144807 19.0283C-0.00624793 19.2011 -0.0428886 19.4466 0.0526974 19.656C0.147697 19.8654 0.355979 19.9999 0.585979 19.9999H8.82797C12.1676 19.9999 16.484 17.1241 16.484 12.9885C16.484 9.16512 12.7652 6.05469 8.24203 6.05469ZM4.68742 14.0625C4.04141 14.0625 3.51559 13.5366 3.51559 12.8907C3.51559 12.2446 4.04145 11.7188 4.68742 11.7188C5.3334 11.7188 5.85926 12.2447 5.85926 12.8907C5.8593 13.5366 5.33344 14.0625 4.68742 14.0625ZM8.24203 14.0625C7.59602 14.0625 7.0702 13.5366 7.0702 12.8907C7.0702 12.2446 7.59606 11.7188 8.24203 11.7188C8.88801 11.7188 9.41387 12.2447 9.41387 12.8907C9.41387 13.5366 8.88805 14.0625 8.24203 14.0625ZM11.7966 14.0625C11.1506 14.0625 10.6248 13.5366 10.6248 12.8907C10.6248 12.2446 11.1507 11.7188 11.7966 11.7188C12.4426 11.7188 12.9685 12.2447 12.9685 12.8907C12.9685 13.5366 12.4427 14.0625 11.7966 14.0625Z" fill="#757575"/>
    <path d="M19.8582 11.923L18.4787 10.3134C19.4634 9.20224 19.9996 7.84724 19.9996 6.4454C19.9996 2.89153 16.5825 0.000244141 12.3826 0.000244141C8.58472 0.000244141 5.35812 2.367 4.78839 5.44751C5.84808 5.08743 7.03648 4.88274 8.24206 4.88274C13.373 4.88274 17.5886 8.46653 17.6502 12.8906H19.4137C19.9142 12.8906 20.183 12.3012 19.8582 11.923Z" fill="#757575"/>
  </g>
  <defs>
    <clipPath id="clip0_20_4399">
      <rect width="20" height="20" fill="white"/>
    </clipPath>
  </defs>
</svg>