<svg xmlns="http://www.w3.org/2000/svg" width="21" height="21" viewBox="0 0 21 21" fill="none">
  <g clip-path="url(#clip0_427_5559)">
    <path d="M10.5 0C4.71056 0 0 4.71056 0 10.5V20.3438C0 20.706 0.294 21 0.65625 21H10.5C16.2894 21 21 16.2894 21 10.5C21 4.71056 16.2894 0 10.5 0ZM11.1562 13.125H5.90625C5.544 13.125 5.25 12.831 5.25 12.4688C5.25 12.1065 5.544 11.8125 5.90625 11.8125H11.1562C11.5185 11.8125 11.8125 12.1065 11.8125 12.4688C11.8125 12.831 11.5185 13.125 11.1562 13.125ZM15.0938 9.1875H5.90625C5.544 9.1875 5.25 8.8935 5.25 8.53125C5.25 8.169 5.544 7.875 5.90625 7.875H15.0938C15.456 7.875 15.75 8.169 15.75 8.53125C15.75 8.8935 15.456 9.1875 15.0938 9.1875Z" fill="#FF5500"/>
  </g>
  <defs>
    <clipPath id="clip0_427_5559">
      <rect width="21" height="21" fill="white"/>
    </clipPath>
  </defs>
</svg>