<svg width="136" height="16" viewBox="0 0 136 16" fill="none" xmlns="http://www.w3.org/2000/svg">
<path d="M7.20813 15.28C5.78813 15.28 4.53813 14.98 3.45813 14.38C2.37813 13.7733 1.53479 12.9267 0.928125 11.84C0.328125 10.7467 0.028125 9.46667 0.028125 8C0.028125 6.53333 0.338125 5.25667 0.958125 4.17C1.58479 3.07667 2.44479 2.23 3.53813 1.63C4.63146 1.02333 5.88146 0.719999 7.28813 0.719999C8.02813 0.719999 8.70479 0.799999 9.31813 0.96C9.93146 1.11333 10.4615 1.30667 10.9081 1.54L10.6281 3.98C10.1215 3.74667 9.59813 3.55667 9.05813 3.41C8.52479 3.25667 7.92813 3.18 7.26813 3.18C6.28813 3.18 5.46813 3.38667 4.80813 3.8C4.15479 4.21333 3.66146 4.78333 3.32813 5.51C2.99479 6.23667 2.82813 7.06667 2.82813 8C2.82813 8.93333 2.99146 9.76333 3.31813 10.49C3.64479 11.2167 4.13146 11.7867 4.77813 12.2C5.43146 12.6133 6.24146 12.82 7.20813 12.82C7.88146 12.82 8.48479 12.7467 9.01813 12.6C9.55146 12.4533 10.0881 12.26 10.6281 12.02L10.9081 14.46C10.3815 14.7067 9.80146 14.9033 9.16813 15.05C8.54146 15.2033 7.88813 15.28 7.20813 15.28ZM18.9398 15.28C17.6065 15.28 16.4198 14.98 15.3798 14.38C14.3398 13.7733 13.5232 12.9267 12.9298 11.84C12.3365 10.7467 12.0398 9.46667 12.0398 8C12.0398 6.53333 12.3365 5.25667 12.9298 4.17C13.5232 3.07667 14.3398 2.23 15.3798 1.63C16.4198 1.02333 17.6065 0.719999 18.9398 0.719999C20.2732 0.719999 21.4598 1.02333 22.4998 1.63C23.5398 2.23 24.3565 3.07667 24.9498 4.17C25.5432 5.25667 25.8398 6.53333 25.8398 8C25.8398 9.46667 25.5432 10.7467 24.9498 11.84C24.3565 12.9267 23.5398 13.7733 22.4998 14.38C21.4598 14.98 20.2732 15.28 18.9398 15.28ZM18.9398 12.8C19.8732 12.8 20.6532 12.5933 21.2798 12.18C21.9065 11.7667 22.3765 11.2 22.6898 10.48C23.0032 9.75333 23.1598 8.92667 23.1598 8C23.1598 7.07333 23.0032 6.25 22.6898 5.53C22.3765 4.80333 21.9065 4.23333 21.2798 3.82C20.6532 3.40667 19.8732 3.2 18.9398 3.2C18.0065 3.2 17.2265 3.40667 16.5998 3.82C15.9732 4.23333 15.5032 4.80333 15.1898 5.53C14.8765 6.25 14.7198 7.07333 14.7198 8C14.7198 8.92667 14.8765 9.75333 15.1898 10.48C15.5032 11.2 15.9732 11.7667 16.5998 12.18C17.2265 12.5933 18.0065 12.8 18.9398 12.8ZM27.298 15L29.238 0.999999H31.338L34.758 7.38L38.158 0.999999H40.258L42.198 15H39.538L38.198 4.48L38.898 4.62L34.758 12.06L30.598 4.64L31.298 4.5L29.958 15H27.298ZM44.5205 15V0.999999H47.0805V15H44.5205ZM50.165 15V0.999999H52.685L58.665 10.04V0.999999H61.225V15H59.125L52.725 5.4V15H50.165ZM70.5256 15.28C69.0456 15.28 67.779 14.98 66.7256 14.38C65.6723 13.7733 64.8656 12.9233 64.3056 11.83C63.7456 10.7367 63.4656 9.45333 63.4656 7.98C63.4656 6.52 63.7756 5.24667 64.3956 4.16C65.0223 3.06667 65.8856 2.22 66.9856 1.62C68.0856 1.02 69.3523 0.719999 70.7856 0.719999C71.5256 0.719999 72.2323 0.796666 72.9056 0.949999C73.5856 1.10333 74.1656 1.3 74.6456 1.54L74.3656 3.98C73.8656 3.74667 73.3123 3.55667 72.7056 3.41C72.1056 3.25667 71.4656 3.18 70.7856 3.18C69.7456 3.18 68.8923 3.39 68.2256 3.81C67.559 4.22333 67.0656 4.79 66.7456 5.51C66.4256 6.22333 66.2656 7.03333 66.2656 7.94C66.2656 8.89333 66.4256 9.73667 66.7456 10.47C67.0723 11.2033 67.559 11.78 68.2056 12.2C68.8523 12.6133 69.659 12.82 70.6256 12.82C70.919 12.82 71.2256 12.8 71.5456 12.76C71.8723 12.72 72.2056 12.6667 72.5456 12.6V10.1H70.6256V7.98H75.1056V14.22C74.619 14.5067 73.9723 14.7567 73.1656 14.97C72.3656 15.1767 71.4856 15.28 70.5256 15.28ZM86.1391 15.28C85.5724 15.28 84.9891 15.2233 84.3891 15.11C83.7891 15.0033 83.2324 14.8733 82.7191 14.72C82.2057 14.56 81.7991 14.4067 81.4991 14.26L81.7991 11.54C82.2657 11.7667 82.7524 11.9767 83.2591 12.17C83.7657 12.3633 84.2857 12.52 84.8191 12.64C85.3524 12.76 85.8924 12.82 86.4391 12.82C87.1191 12.82 87.6657 12.6867 88.0791 12.42C88.4924 12.1533 88.6991 11.7467 88.6991 11.2C88.6991 10.78 88.5824 10.4433 88.3491 10.19C88.1157 9.93 87.7591 9.7 87.2791 9.5C86.7991 9.29333 86.1857 9.06 85.4391 8.8C84.6924 8.54 84.0224 8.24667 83.4291 7.92C82.8357 7.58667 82.3657 7.16667 82.0191 6.66C81.6724 6.15333 81.4991 5.50667 81.4991 4.72C81.4991 3.94667 81.6891 3.26 82.0691 2.66C82.4491 2.05333 83.0157 1.58 83.7691 1.24C84.5291 0.893333 85.4724 0.719999 86.5991 0.719999C87.4524 0.719999 88.2657 0.816666 89.0391 1.01C89.8124 1.19667 90.4724 1.4 91.0191 1.62L90.7591 4.24C89.9724 3.88667 89.2324 3.62 88.5391 3.44C87.8524 3.25333 87.1524 3.16 86.4391 3.16C85.6924 3.16 85.1157 3.28333 84.7091 3.53C84.3024 3.77667 84.0991 4.14667 84.0991 4.64C84.0991 5.03333 84.2124 5.35 84.4391 5.59C84.6657 5.83 84.9891 6.03667 85.4091 6.21C85.8291 6.37667 86.3324 6.55333 86.9191 6.74C87.9324 7.06 88.7824 7.41333 89.4691 7.8C90.1624 8.18 90.6824 8.64333 91.0291 9.19C91.3824 9.73 91.5591 10.4 91.5591 11.2C91.5591 11.6 91.4957 12.0367 91.3691 12.51C91.2424 12.9767 90.9924 13.42 90.6191 13.84C90.2457 14.26 89.6991 14.6067 88.9791 14.88C88.2657 15.1467 87.3191 15.28 86.1391 15.28ZM99.7406 15.28C98.4073 15.28 97.2206 14.98 96.1806 14.38C95.1406 13.7733 94.324 12.9267 93.7306 11.84C93.1373 10.7467 92.8406 9.46667 92.8406 8C92.8406 6.53333 93.1373 5.25667 93.7306 4.17C94.324 3.07667 95.1406 2.23 96.1806 1.63C97.2206 1.02333 98.4073 0.719999 99.7406 0.719999C101.074 0.719999 102.261 1.02333 103.301 1.63C104.341 2.23 105.157 3.07667 105.751 4.17C106.344 5.25667 106.641 6.53333 106.641 8C106.641 9.46667 106.344 10.7467 105.751 11.84C105.157 12.9267 104.341 13.7733 103.301 14.38C102.261 14.98 101.074 15.28 99.7406 15.28ZM99.7406 12.8C100.674 12.8 101.454 12.5933 102.081 12.18C102.707 11.7667 103.177 11.2 103.491 10.48C103.804 9.75333 103.961 8.92667 103.961 8C103.961 7.07333 103.804 6.25 103.491 5.53C103.177 4.80333 102.707 4.23333 102.081 3.82C101.454 3.40667 100.674 3.2 99.7406 3.2C98.8073 3.2 98.0273 3.40667 97.4006 3.82C96.774 4.23333 96.304 4.80333 95.9906 5.53C95.6773 6.25 95.5206 7.07333 95.5206 8C95.5206 8.92667 95.6773 9.75333 95.9906 10.48C96.304 11.2 96.774 11.7667 97.4006 12.18C98.0273 12.5933 98.8073 12.8 99.7406 12.8ZM114.936 15.28C113.603 15.28 112.416 14.98 111.376 14.38C110.336 13.7733 109.519 12.9267 108.926 11.84C108.333 10.7467 108.036 9.46667 108.036 8C108.036 6.53333 108.333 5.25667 108.926 4.17C109.519 3.07667 110.336 2.23 111.376 1.63C112.416 1.02333 113.603 0.719999 114.936 0.719999C116.269 0.719999 117.456 1.02333 118.496 1.63C119.536 2.23 120.353 3.07667 120.946 4.17C121.539 5.25667 121.836 6.53333 121.836 8C121.836 9.46667 121.539 10.7467 120.946 11.84C120.353 12.9267 119.536 13.7733 118.496 14.38C117.456 14.98 116.269 15.28 114.936 15.28ZM114.936 12.8C115.869 12.8 116.649 12.5933 117.276 12.18C117.903 11.7667 118.373 11.2 118.686 10.48C118.999 9.75333 119.156 8.92667 119.156 8C119.156 7.07333 118.999 6.25 118.686 5.53C118.373 4.80333 117.903 4.23333 117.276 3.82C116.649 3.40667 115.869 3.2 114.936 3.2C114.003 3.2 113.223 3.40667 112.596 3.82C111.969 4.23333 111.499 4.80333 111.186 5.53C110.873 6.25 110.716 7.07333 110.716 8C110.716 8.92667 110.873 9.75333 111.186 10.48C111.499 11.2 111.969 11.7667 112.596 12.18C113.223 12.5933 114.003 12.8 114.936 12.8ZM124.071 15V0.999999H126.591L132.571 10.04V0.999999H135.131V15H133.031L126.631 5.4V15H124.071Z" fill="url(#paint0_linear_504_6581)"/>
<defs>
<linearGradient id="paint0_linear_504_6581" x1="-1" y1="8" x2="137" y2="8" gradientUnits="userSpaceOnUse">
<stop stop-color="#D35181"/>
<stop offset="0.144231" stop-color="#BE5ED4"/>
<stop offset="0.302885" stop-color="#7176DA"/>
<stop offset="0.447115" stop-color="#189CDD"/>
<stop offset="0.610577" stop-color="#255693"/>
<stop offset="0.730769" stop-color="#2AAC7E"/>
<stop offset="0.836538" stop-color="#F9A72E"/>
<stop offset="0.913462" stop-color="#F95433"/>
<stop offset="1" stop-color="#F270AD"/>
</linearGradient>
</defs>
</svg>
