<svg xmlns="http://www.w3.org/2000/svg" width="36" height="36" viewBox="0 0 36 36" fill="none">
  <g clip-path="url(#clip0_141_6458)">
    <path d="M31.8123 14.7184V35.7747H4.18774V14.7184L18.0779 1.24414L31.8123 14.7184Z" fill="#E9EAEF"/>
    <path d="M31.9593 4.40689V13.861L27.2573 9.38298L25.0532 7.28394V4.40689C25.0532 3.84777 25.5065 3.39453 26.0656 3.39453H30.947C31.5061 3.39446 31.9593 3.84777 31.9593 4.40689Z" fill="#9EB1B7"/>
    <path d="M27.2571 3.39453V9.38305L25.053 7.28401V4.40696C25.053 3.84784 25.5062 3.3946 26.0653 3.3946L27.2571 3.39453Z" fill="#879BA0"/>
    <path d="M35.9999 32.5312V35.7741H19.3224V32.5312C19.3224 31.8854 19.8462 31.3623 20.492 31.3623H34.8303C35.4761 31.3623 35.9999 31.8854 35.9999 32.5312Z" fill="#9CCE21"/>
    <path d="M5.84599 32.5312V35.7741H0V32.5312C0 31.8854 0.523125 31.3623 1.16887 31.3623H4.67627C5.32287 31.3623 5.84599 31.8854 5.84599 32.5312Z" fill="#9CCE21"/>
    <path d="M35.9999 33.6337V35.7746H19.3224V33.6337C19.3224 32.9879 19.8462 32.4648 20.492 32.4648H34.8303C35.4761 32.4648 35.9999 32.9879 35.9999 33.6337Z" fill="#85C10D"/>
    <path d="M5.84599 33.6337V35.7746H0V33.6337C0 32.9879 0.523125 32.4648 1.16887 32.4648H4.67627C5.32287 32.4648 5.84599 32.9879 5.84599 33.6337Z" fill="#85C10D"/>
    <path d="M31.8123 15.545V19.4808L18 6.29305L4.18774 19.4808V15.545L16.9031 3.43513L18 2.41602L19.0962 3.43513L31.8123 15.545Z" fill="#D2D4D8"/>
    <path d="M17.9998 4.10269L2.27359 19.1171L0.074707 17.271L16.9034 1.2442L17.9998 0.225586L19.0963 1.2442L35.9249 17.271L33.7259 19.1171L17.9998 4.10269Z" fill="#EA4756"/>
    <path d="M16.6776 19.998H7.56738V35.7741H16.6776V19.998Z" fill="#C97523"/>
    <path d="M29.6971 19.998H19.3225V29.1082H29.6971V19.998Z" fill="#A0D9F2"/>
    <path d="M29.6971 19.998H19.3225V22.7664H29.6971V19.998Z" fill="#C97523"/>
    <path d="M14.8825 28.3872H13.5601C13.2557 28.3872 13.009 28.1405 13.009 27.8362C13.009 27.5319 13.2557 27.2852 13.5601 27.2852H14.8825C15.1869 27.2852 15.4335 27.5319 15.4335 27.8362C15.4335 28.1405 15.1869 28.3872 14.8825 28.3872Z" fill="#8E480E"/>
    <path d="M18 15.4939C19.3998 15.4939 20.5346 14.3592 20.5346 12.9594C20.5346 11.5596 19.3998 10.4248 18 10.4248C16.6002 10.4248 15.4655 11.5596 15.4655 12.9594C15.4655 14.3592 16.6002 15.4939 18 15.4939Z" fill="#413740"/>
    <path d="M16.6776 19.4473H7.5674C7.26301 19.4473 7.01636 19.694 7.01636 19.9983V35.7744H8.11837V20.5493H16.1265V35.7743H17.2285V19.9982C17.2287 19.6939 16.982 19.4473 16.6776 19.4473Z" fill="#8E480E"/>
    <path d="M29.6969 19.4473H19.3225C19.0181 19.4473 18.7715 19.694 18.7715 19.9983V29.1085C18.7715 29.4128 19.0181 29.6595 19.3225 29.6595H29.6969C30.0012 29.6595 30.2479 29.4128 30.2479 29.1085V19.9982C30.2479 19.6939 30.0012 19.4473 29.6969 19.4473ZM29.1458 20.5493V22.2155H19.8736V20.5493H29.1458ZM19.8736 28.5574V23.3176H29.1458V28.5574H19.8736Z" fill="#8E480E"/>
    <path d="M17.9999 16.0443C16.2985 16.0443 14.9143 14.6601 14.9143 12.9587C14.9143 11.2573 16.2985 9.87305 17.9999 9.87305C19.7013 9.87305 21.0855 11.2572 21.0855 12.9587C21.0855 14.6601 19.7013 16.0443 17.9999 16.0443ZM17.9999 10.9751C16.9062 10.9751 16.0164 11.8649 16.0164 12.9587C16.0164 14.0524 16.9062 14.9422 17.9999 14.9422C19.0936 14.9422 19.9834 14.0524 19.9834 12.9587C19.9834 11.8649 19.0936 10.9751 17.9999 10.9751Z" fill="#EA4756"/>
  </g>
  <defs>
    <clipPath id="clip0_141_6458">
      <rect width="36" height="36" fill="white"/>
    </clipPath>
  </defs>
</svg>