<svg width="150" height="49" viewBox="0 0 150 49" fill="none" xmlns="http://www.w3.org/2000/svg">
<rect x="0.626482" y="1.48781" width="148.747" height="46.747" rx="6.8913" fill="black"/>
<rect x="0.626482" y="1.48781" width="148.747" height="46.747" rx="6.8913" stroke="#A6A6A6" stroke-width="1.25296"/>
<path d="M22.3089 25.246L10.136 38.4575C10.1372 38.4599 10.1372 38.4634 10.1383 38.4657C10.5122 39.9003 11.7927 40.9561 13.3133 40.9561C13.9215 40.9561 14.4921 40.7877 14.9814 40.4931L15.0203 40.4697L28.7217 32.3849L22.3089 25.246Z" fill="#EA4335"/>
<path d="M34.6234 22.9966L34.612 22.9884L28.6965 19.4821L22.0322 25.5465L28.7205 32.3838L34.604 28.9125C35.6353 28.342 36.3361 27.2301 36.3361 25.9487C36.3361 24.6743 35.6456 23.5683 34.6234 22.9966Z" fill="#FBBC04"/>
<path d="M10.1358 13.3829C10.0627 13.6588 10.0238 13.9488 10.0238 14.2481V37.594C10.0238 37.8933 10.0627 38.1833 10.137 38.458L22.7271 25.5843L10.1358 13.3829Z" fill="#4285F4"/>
<path d="M22.3989 25.9209L28.6985 19.48L15.0131 11.366C14.5158 11.0608 13.935 10.8854 13.3141 10.8854C11.7935 10.8854 10.5107 11.9435 10.1369 13.3793C10.1369 13.3804 10.1357 13.3816 10.1357 13.3828L22.3989 25.9209Z" fill="#34A853"/>
<path d="M60.2177 13.6279C60.2177 14.6912 59.9023 15.5382 59.2714 16.1691C58.5626 16.9204 57.6305 17.2961 56.4751 17.2961C55.3694 17.2961 54.4337 16.9133 53.6682 16.1478C52.9026 15.3823 52.5199 14.4395 52.5199 13.3196C52.5199 12.1996 52.9026 11.2569 53.6682 10.4914C54.4337 9.72582 55.3694 9.34305 56.4751 9.34305C57.0351 9.34305 57.5632 9.44229 58.0594 9.64076C58.5555 9.83923 58.9631 10.1192 59.2821 10.4807L58.5803 11.1825C58.3464 10.8989 58.0416 10.6792 57.666 10.5232C57.2974 10.3602 56.9004 10.2787 56.4751 10.2787C55.6458 10.2787 54.9441 10.5658 54.3699 11.1399C53.8028 11.7212 53.5193 12.4477 53.5193 13.3196C53.5193 14.1914 53.8028 14.918 54.3699 15.4992C54.9441 16.0734 55.6458 16.3604 56.4751 16.3604C57.2336 16.3604 57.8644 16.1478 58.3677 15.7225C58.871 15.2972 59.1616 14.7124 59.2395 13.9682H56.4751V13.0538H60.1646C60.2 13.2522 60.2177 13.4436 60.2177 13.6279ZM65.8506 9.51317V10.4488H62.3844V12.8624H65.5103V13.7768H62.3844V16.1903H65.8506V17.126H61.4062V9.51317H65.8506ZM69.7632 10.4488V17.126H68.785V10.4488H66.6586V9.51317H71.8897V10.4488H69.7632ZM76.2252 17.126H75.2471V9.51317H76.2252V17.126ZM80.3541 10.4488V17.126H79.3759V10.4488H77.2494V9.51317H82.4806V10.4488H80.3541ZM93.0836 13.3196C93.0836 14.4466 92.7079 15.3893 91.9566 16.1478C91.1981 16.9133 90.2695 17.2961 89.1709 17.2961C88.0651 17.2961 87.1365 16.9133 86.3852 16.1478C85.6338 15.3893 85.2581 14.4466 85.2581 13.3196C85.2581 12.1925 85.6338 11.2498 86.3852 10.4914C87.1365 9.72582 88.0651 9.34305 89.1709 9.34305C90.2766 9.34305 91.2052 9.72936 91.9566 10.502C92.7079 11.2604 93.0836 12.1996 93.0836 13.3196ZM86.2576 13.3196C86.2576 14.1985 86.534 14.9251 87.0869 15.4992C87.6469 16.0734 88.3415 16.3604 89.1709 16.3604C90.0002 16.3604 90.6913 16.0734 91.2442 15.4992C91.8042 14.9322 92.0841 14.2056 92.0841 13.3196C92.0841 12.4335 91.8042 11.707 91.2442 11.1399C90.6913 10.5658 90.0002 10.2787 89.1709 10.2787C88.3415 10.2787 87.6469 10.5658 87.0869 11.1399C86.534 11.7141 86.2576 12.4406 86.2576 13.3196ZM95.2161 17.126H94.238V9.51317H95.4288L99.1289 15.4354H99.1714L99.1289 13.9682V9.51317H100.107V17.126H99.0863L95.2161 10.9166H95.1736L95.2161 12.3839V17.126Z" fill="white"/>
<path d="M117.175 37.1811H119.216V23.3841H117.175V37.1811ZM135.557 28.3539L133.217 34.3358H133.147L130.719 28.3539H128.521L132.162 36.7143L130.087 41.3651H132.214L137.826 28.3539H135.557ZM123.983 35.6139C123.314 35.6139 122.382 35.2773 122.382 34.4418C122.382 33.3778 123.542 32.9695 124.545 32.9695C125.442 32.9695 125.865 33.1648 126.41 33.4308C126.251 34.7089 125.161 35.6139 123.983 35.6139ZM124.229 28.0526C122.752 28.0526 121.22 28.7093 120.588 30.1651L122.399 30.9277C122.787 30.1651 123.507 29.9156 124.264 29.9156C125.32 29.9156 126.393 30.5547 126.41 31.6914V31.8327C126.04 31.6197 125.25 31.3007 124.282 31.3007C122.329 31.3007 120.341 32.3834 120.341 34.4065C120.341 36.2529 121.942 37.4427 123.736 37.4427C125.109 37.4427 125.865 36.8213 126.34 36.0929H126.41V37.1579H128.38V31.868C128.38 29.419 126.569 28.0526 124.229 28.0526ZM111.617 30.0337H108.714V25.3045H111.617C113.142 25.3045 114.009 26.5792 114.009 27.6685C114.009 28.738 113.142 30.0337 111.617 30.0337ZM111.564 23.3841H106.674V37.1811H108.714V31.9541H111.564C113.826 31.9541 116.049 30.3008 116.049 27.6685C116.049 25.0363 113.826 23.3841 111.564 23.3841ZM84.8987 35.6161C83.4889 35.6161 82.3088 34.4252 82.3088 32.7896C82.3088 31.1363 83.4889 29.9267 84.8987 29.9267C86.291 29.9267 87.3825 31.1363 87.3825 32.7896C87.3825 34.4252 86.291 35.6161 84.8987 35.6161ZM87.2425 29.1265H87.1714C86.7132 28.5758 85.8327 28.078 84.7226 28.078C82.3963 28.078 80.2647 30.1397 80.2647 32.7896C80.2647 35.4208 82.3963 37.4659 84.7226 37.4659C85.8327 37.4659 86.7132 36.9681 87.1714 36.3986H87.2425V37.0752C87.2425 38.8708 86.291 39.831 84.7576 39.831C83.5064 39.831 82.731 38.9238 82.4138 38.159L80.6344 38.9062C81.1451 40.1511 82.5024 41.6797 84.7576 41.6797C87.1539 41.6797 89.1805 40.2571 89.1805 36.7904V28.3617H87.2425V29.1265ZM90.5903 37.1811H92.6344V23.383H90.5903V37.1811ZM95.6465 32.6296C95.594 30.8162 97.0388 29.8913 98.0778 29.8913C98.8893 29.8913 99.5761 30.2997 99.8047 30.8869L95.6465 32.6296ZM101.99 31.0645C101.603 30.0161 100.422 28.078 98.0078 28.078C95.6115 28.078 93.621 29.9796 93.621 32.7719C93.621 35.4031 95.594 37.4659 98.2364 37.4659C100.369 37.4659 101.603 36.1503 102.114 35.3854L100.528 34.3182C99.9994 35.1007 99.2765 35.6161 98.2364 35.6161C97.1974 35.6161 96.4569 35.136 95.9812 34.1946L102.201 31.5976L101.99 31.0645ZM52.4367 29.5183V31.5093H57.1582C57.0171 32.6296 56.6474 33.4474 56.0841 34.0158C55.3962 34.71 54.3211 35.4748 52.4367 35.4748C49.5285 35.4748 47.2558 33.1097 47.2558 30.1761C47.2558 27.2414 49.5285 24.8774 52.4367 24.8774C54.005 24.8774 55.1501 25.4998 55.9956 26.3L57.3878 24.895C56.2066 23.7571 54.6394 22.8852 52.4367 22.8852C48.4545 22.8852 45.1067 26.1576 45.1067 30.1761C45.1067 34.1946 48.4545 37.4659 52.4367 37.4659C54.5858 37.4659 56.2066 36.754 57.4753 35.4208C58.7801 34.1052 59.1848 32.2565 59.1848 30.7621C59.1848 30.2997 59.1498 29.8737 59.0787 29.5183H52.4367ZM64.5537 35.6161C63.144 35.6161 61.9278 34.4429 61.9278 32.7719C61.9278 31.0822 63.144 29.9267 64.5537 29.9267C65.9624 29.9267 67.1786 31.0822 67.1786 32.7719C67.1786 34.4429 65.9624 35.6161 64.5537 35.6161ZM64.5537 28.078C61.9803 28.078 59.8836 30.0514 59.8836 32.7719C59.8836 35.4748 61.9803 37.4659 64.5537 37.4659C67.1261 37.4659 69.2227 35.4748 69.2227 32.7719C69.2227 30.0514 67.1261 28.078 64.5537 28.078ZM74.7394 35.6161C73.3296 35.6161 72.1134 34.4429 72.1134 32.7719C72.1134 31.0822 73.3296 29.9267 74.7394 29.9267C76.1491 29.9267 77.3642 31.0822 77.3642 32.7719C77.3642 34.4429 76.1491 35.6161 74.7394 35.6161ZM74.7394 28.078C72.167 28.078 70.0703 30.0514 70.0703 32.7719C70.0703 35.4748 72.167 37.4659 74.7394 37.4659C77.3117 37.4659 79.4083 35.4748 79.4083 32.7719C79.4083 30.0514 77.3117 28.078 74.7394 28.078Z" fill="white"/>
</svg>
