<svg xmlns="http://www.w3.org/2000/svg" width="24" height="24" viewBox="0 0 24 24" fill="none">
  <g clip-path="url(#clip0_255_4544)">
    <mask id="mask0_255_4544" style="mask-type:luminance" maskUnits="userSpaceOnUse" x="0" y="0" width="24" height="24">
      <path d="M0 0H24V24H0V0Z" fill="white"/>
    </mask>
    <g mask="url(#mask0_255_4544)">
      <path fill-rule="evenodd" clip-rule="evenodd" d="M23.7071 5.29289C24.0976 5.68342 24.0976 6.31658 23.7071 6.70711L14.2071 16.2071C13.8166 16.5976 13.1834 16.5976 12.7929 16.2071L8.5 11.9142L1.70711 18.7071C1.31658 19.0976 0.683417 19.0976 0.292893 18.7071C-0.097631 18.3166 -0.097631 17.6834 0.292893 17.2929L7.79289 9.79289C8.18342 9.40237 8.81658 9.40237 9.20711 9.79289L13.5 14.0858L22.2929 5.29289C22.6834 4.90237 23.3166 4.90237 23.7071 5.29289Z" fill="black"/>
      <path fill-rule="evenodd" clip-rule="evenodd" d="M15.9999 6C15.9999 5.44772 16.4476 5 16.9999 5H22.9999C23.5522 5 23.9999 5.44772 23.9999 6V12C23.9999 12.5523 23.5522 13 22.9999 13C22.4476 13 21.9999 12.5523 21.9999 12V7H16.9999C16.4476 7 15.9999 6.55228 15.9999 6Z" fill="black"/>
    </g>
  </g>
  <defs>
    <clipPath id="clip0_255_4544">
      <rect width="24" height="24" fill="white"/>
    </clipPath>
  </defs>
</svg>