<svg xmlns="http://www.w3.org/2000/svg" width="20" height="21" viewBox="0 0 20 21" fill="none">
  <path fill-rule="evenodd" clip-rule="evenodd" d="M20 10.5176C20 10.9763 19.5522 11.3481 19 11.3481H5.41422L10.7071 15.7442C11.0976 16.0686 11.0976 16.5945 10.7071 16.919C10.3166 17.2432 9.68342 17.2432 9.2929 16.919L2.2929 11.1049C2.09788 10.9429 2.00024 10.7307 2 10.5184V18.8233C2 19.282 1.55228 19.6539 1 19.6539C0.44772 19.6539 0 19.282 0 18.8233V2.2118C0 1.75309 0.44772 1.38123 1 1.38123C1.55228 1.38123 2 1.75309 2 2.2118V10.5184C2.00024 10.3061 2.09788 10.0922 2.2929 9.93024L9.2929 4.11623C9.68342 3.79186 10.3166 3.79186 10.7071 4.11623C11.0976 4.44058 11.0976 4.96647 10.7071 5.29083L5.41422 9.68698H19C19.5522 9.68698 20 10.0588 20 10.5176Z" fill="black"/>
</svg>