<svg xmlns="http://www.w3.org/2000/svg" width="56" height="56" viewBox="0 0 56 56" fill="none">
  <path fill-rule="evenodd" clip-rule="evenodd" d="M7.80481 25.0112C8.3099 24.3355 6.89983 21.7803 6.20286 20.8001C5.88594 20.3533 5.09736 19.9515 5.21745 19.2864C5.78816 16.1204 8.51169 18.5312 9.9626 17.6284C11.7639 16.5069 11.9136 14.1998 12.9647 12.6526C13.4227 11.9781 14.8613 11.0291 15.0767 10.2572C15.3255 9.36479 13.7075 8.55305 13.4339 7.77634C12.8755 6.1842 13.4079 4.17557 13.1875 3.48206C12.9065 2.5927 11.8555 2.29547 11.9458 1.22945C12.0944 -0.514096 15.3552 -0.0922112 16.353 0.602543C17.2555 1.23093 18.8488 2.52784 19.7933 2.90852C20.9991 3.39529 22.3151 1.38779 23.3971 2.16809C25.3865 3.6029 22.4463 5.07882 22.554 6.46818C22.5936 6.98305 23.3537 8.14613 23.1594 8.57817C22.8177 9.34151 21.7258 9.50369 21.4411 10.3412C21.0189 11.5899 24.3578 12.6698 24.9334 13.326C25.6551 14.151 24.177 15.2378 24.0223 16.0553C24.0037 16.1575 25.3803 16.8185 25.5004 16.9123C26.1986 17.4581 26.8547 18.4354 27.6867 18.7735C28.8528 19.247 30.0809 18.7439 31.2718 18.9047C32.9876 19.1361 35.0303 21.4198 36.813 20.2413C37.8479 19.5574 36.3587 17.4088 37.3465 17.0673C39.6913 16.2566 39.2233 18.7803 40.0528 19.2315C40.1444 19.2815 43.6156 18.8579 43.9672 18.7387C44.325 18.617 44.0514 17.7461 44.2841 17.3966C44.8969 16.4722 46.0606 14.988 47.0634 14.4389C48.513 13.6459 52.6912 14.8958 52.9388 16.7978C53.0143 17.3707 52.0016 17.4652 51.6241 17.6842C50.6312 18.2604 49.1568 19.6388 48.7346 20.7C48.5378 21.1966 49.1234 21.8887 49.21 22.3968C49.2942 22.9021 48.8003 23.9199 48.57 24.3743C48.1714 25.1581 46.739 24.4416 46.4085 25.6644C46.0681 26.9187 47.9448 28.124 47.0399 29.3163C46.697 29.7672 45.6694 27.8814 45.5295 27.5243C45.4738 27.3814 45.4924 27.4177 45.4515 27.3112C45.433 27.2624 45.4144 27.214 45.3946 27.1659C45.3772 27.1229 45.3537 27.0601 45.3228 27.0257C44.9464 26.6107 43.2789 27.6312 42.9397 26.7212C42.3417 25.1165 42.9112 24.615 43.4807 23.248C43.5896 22.9856 42.9199 23.15 42.6376 23.1151C42.0817 23.0462 41.516 23.0482 40.9799 22.8739C39.8088 22.4931 39.3037 20.3686 38.1685 21.6853C36.7956 23.2777 40.205 27.4469 39.1403 29.1868C38.3938 30.4088 36.7325 30.2768 35.7792 31.1827C35.2717 31.6641 35.6257 32.3096 35.1318 32.8425C34.6552 33.3561 33.9767 33.5929 33.4927 34.1108C31.5305 36.2104 29.7342 38.4466 27.7473 40.4991C26.6071 41.6767 24.8182 41.6013 23.8575 43.094C23.4849 43.6731 24.4914 45.601 24.4443 46.4864C24.3961 47.4112 23.735 48.3515 23.6186 49.306C23.5456 49.9063 24.0123 50.891 23.7771 51.4063C23.2868 52.4778 21.5982 53.2426 20.7675 54.0256C20.0755 54.6777 19.6249 56.1897 18.3882 55.9803C16.119 55.5954 16.3802 51.7218 15.6956 50.085C15.3378 49.2315 14.5678 48.5627 14.1518 47.7101C13.513 46.3973 13.6455 44.8825 13.0872 43.5577C12.41 41.9521 11.3169 40.6527 10.9579 38.9157C10.3748 36.0869 11.2364 33.8896 10.8291 31.296C10.8106 31.1764 10.5877 30.3936 10.3995 30.3701C9.72609 30.286 8.91397 31.5461 8.33956 31.8034C7.44699 32.2031 5.43777 30.8232 4.79896 30.3554C3.6662 29.5251 3.62536 29.2365 4.44986 28.1004C4.69375 27.7651 3.21311 26.7687 3.04599 26.5845C3.02742 26.5638 3.10046 26.4144 3.1017 26.4134C3.35547 25.8972 4.69497 25.1951 5.2236 24.8945C5.86365 24.5306 7.0385 25.2326 7.80481 25.0112Z" fill="white"/>
</svg>