<svg xmlns="http://www.w3.org/2000/svg" width="32" height="32" viewBox="0 0 32 32" fill="none">
  <rect width="32" height="32" rx="16" fill="#FF5500"/>
  <path d="M15.8571 5.71423C11.518 5.71423 8 9.23227 8 13.5714C8 15.28 8.56015 16.8478 9.49122 18.1318C9.50792 18.1626 9.51054 18.1969 9.52952 18.2264L14.7676 26.0835C15.0105 26.4479 15.4198 26.6666 15.8571 26.6666C16.2945 26.6666 16.7037 26.4479 16.9467 26.0835L22.1848 18.2264C22.2041 18.1969 22.2064 18.1626 22.2231 18.1318C23.1541 16.8478 23.7143 15.28 23.7143 13.5714C23.7143 9.23227 20.1962 5.71423 15.8571 5.71423ZM15.8571 16.1904C14.4108 16.1904 13.2381 15.0177 13.2381 13.5714C13.2381 12.125 14.4108 10.9523 15.8571 10.9523C17.3035 10.9523 18.4762 12.125 18.4762 13.5714C18.4762 15.0177 17.3035 16.1904 15.8571 16.1904Z" fill="white"/>
</svg>