<svg width="267" height="221" viewBox="0 0 267 221" fill="none" xmlns="http://www.w3.org/2000/svg">
<g clip-path="url(#clip0_379_4851)">
<rect width="267" height="221" rx="16" fill="#FF5500"/>
<path d="M177.628 73.5929C177.628 73.5929 177.792 73.397 177.957 73.2012C178.121 73.0053 178.285 72.8094 178.285 72.8094C178.415 72.9697 178.21 73.1764 178.04 73.3521C177.955 73.4399 177.85 73.5331 177.801 73.5899C177.786 73.6155 177.766 73.621 177.791 73.6358L177.797 73.656C177.802 73.6762 177.828 73.691 177.839 73.7314C177.875 73.7867 177.912 73.8419 177.948 73.8971C178.01 73.9672 178.052 74.0426 178.12 74.1329C178.218 74.2581 178.322 74.4036 178.446 74.5436C178.68 74.8494 178.939 75.1699 179.235 75.5457C179.942 75.9194 180.742 76.7231 181.582 77.7548C182.422 78.7864 183.301 80.0459 184.18 81.3054C185.065 82.5851 185.939 83.8244 186.733 84.8467C187.522 85.8487 188.205 86.619 188.692 86.9C188.677 86.9256 188.792 87.1116 188.994 87.3823C189.197 87.653 189.447 88.0194 189.712 88.3602C190.231 89.0876 190.716 89.8461 190.567 90.0163C191.059 89.9925 191.673 90.5862 192.342 91.3821C192.502 91.5773 192.689 91.7874 192.855 92.0029C193.041 92.213 193.207 92.4285 193.388 92.6183C193.761 93.0385 194.128 93.4384 194.519 93.7668C195.098 94.0665 194.183 93.0768 193.866 92.3814C193.866 92.3814 194.073 92.5861 194.387 92.8701C194.537 93.0249 194.733 93.1891 194.914 93.379C195.115 93.5634 195.316 93.7478 195.517 93.9322C195.919 94.301 196.347 94.6847 196.656 94.9485C196.971 95.2325 197.166 95.3967 197.166 95.3967C198.386 96.955 198.675 97.8743 197.258 96.6293C198.333 97.7279 199.934 99.3354 201.903 101.104C203.878 102.893 206.231 104.884 208.771 106.759C209.413 107.215 210.061 107.692 210.709 108.168C211.371 108.618 212.034 109.069 212.702 109.54C213.379 109.965 214.062 110.41 214.744 110.855C215.083 111.068 215.442 111.275 215.78 111.487C216.119 111.7 216.478 111.907 216.831 112.094C219.626 113.706 222.472 115.109 225.279 116.284C225.984 116.571 226.684 116.838 227.364 117.111C227.701 117.237 228.059 117.358 228.396 117.484C228.733 117.61 229.091 117.731 229.428 117.857C230.117 118.084 230.806 118.31 231.47 118.522C231.802 118.628 232.154 118.729 232.485 118.835C232.812 118.92 233.138 119.006 233.464 119.092C236.085 119.732 238.423 119.884 240.415 119.717C242.407 119.55 244.06 119.085 245.371 118.559C245.703 118.426 246.016 118.299 246.308 118.177C246.601 118.055 246.882 117.893 247.149 117.756C247.677 117.462 248.185 117.174 248.621 116.862C248.302 116.883 247.944 117.001 247.585 117.119C247.227 117.237 246.853 117.38 246.495 117.498C245.773 117.714 245.058 117.798 244.382 117.459C244.703 117.199 245.01 117.052 245.328 116.945C245.62 116.823 245.924 116.741 246.181 116.65C246.701 116.489 247.13 116.309 247.381 115.873C247.775 116.049 248.242 116.01 248.771 115.803C249.301 115.595 249.923 115.168 250.494 114.711C251.085 114.249 251.625 113.757 252.106 113.368C252.612 112.993 253.045 112.747 253.517 112.728C253.517 112.728 253.5 112.668 253.473 112.567C253.446 112.465 253.414 112.344 253.381 112.223C253.349 112.101 253.311 111.96 253.284 111.859C253.257 111.758 253.24 111.697 253.24 111.697C253.24 111.697 253.437 111.623 253.634 111.548C253.831 111.473 254.013 111.425 254.013 111.425C254.355 110.682 254.475 110.238 254.55 109.871C254.63 109.524 254.672 109.275 254.704 109.071C254.753 108.689 254.767 108.577 254.811 108.5C254.855 108.423 254.916 108.407 255.075 108.191C255.104 108.14 255.154 108.083 255.219 108.001C255.263 107.924 255.322 107.821 255.376 107.698C255.43 107.575 255.498 107.427 255.587 107.273C255.632 107.196 255.671 107.099 255.71 107.002C255.739 106.95 255.749 106.904 255.778 106.853C255.808 106.802 255.812 106.736 255.841 106.684C255.912 106.383 255.938 106.073 255.963 105.763C255.965 105.61 255.968 105.458 255.97 105.306C255.973 105.153 255.95 104.986 255.947 104.813C255.926 104.494 255.885 104.18 255.824 103.871C255.807 103.724 255.763 103.562 255.745 103.415C255.724 103.334 255.728 103.268 255.706 103.187C255.684 103.106 255.663 103.025 255.667 102.959C255.545 102.342 255.418 101.79 255.375 101.304C255.362 101.177 255.356 101.07 255.349 100.964C255.342 100.857 255.35 100.725 255.343 100.618C255.349 100.4 255.402 100.191 255.465 100.022C255.449 100.286 254.731 100.436 254.381 99.2944C254.648 99.4827 254.728 99.3746 254.729 99.1359C254.717 99.0091 254.699 98.8622 254.65 98.6802C254.628 98.5993 254.601 98.4982 254.574 98.3971C254.547 98.296 254.526 98.2151 254.493 98.0937C254.214 97.2148 253.899 96.2807 254.471 96.4739C254.433 96.3324 254.41 96.1651 254.376 95.9575C254.37 95.9373 254.365 95.9171 254.354 95.8766C254.349 95.8564 254.338 95.8159 254.332 95.7957C254.316 95.7351 254.3 95.6744 254.284 95.6137C254.251 95.4924 254.213 95.3508 254.181 95.2295C254.04 94.7038 253.883 94.1173 253.67 93.5674C253.574 93.2897 253.463 93.0377 253.358 92.8059C253.221 92.5391 253.05 92.3034 252.909 92.1027C252.608 91.7067 252.295 91.509 252.012 91.585C252.29 91.4888 252.171 90.4801 252.181 89.8704C252.184 89.718 252.192 89.5858 252.21 89.4941C252.225 89.4684 252.22 89.4482 252.24 89.4428C252.235 89.4225 252.249 89.3969 252.249 89.3969C252.264 89.3712 252.284 89.3658 252.305 89.3604C252.376 89.3845 252.464 89.4693 252.604 89.67C252.739 89.8505 252.896 90.1119 253.08 90.4744C253.036 90.3126 252.988 90.1306 252.924 89.9743C252.903 89.8934 252.855 89.7977 252.808 89.702C252.761 89.6064 252.713 89.5107 252.686 89.4096C252.517 89.0214 252.348 88.6333 252.185 88.2654C251.832 87.5148 251.464 86.7898 250.99 86.0718L251.549 87.9159C251.182 87.1909 250.856 86.5414 250.556 85.9067C250.492 85.7503 250.408 85.5994 250.345 85.4431C250.256 85.2719 250.172 85.121 250.088 84.9701C249.915 84.6481 249.768 84.3408 249.626 84.0538C249.337 83.4595 249.053 82.8854 248.78 82.3518C248.643 82.085 248.507 81.8182 248.39 81.546C248.332 81.4098 248.254 81.2792 248.196 81.143C248.117 81.0123 248.059 80.8762 247.981 80.7455C246.817 78.5869 245.688 76.6359 243.712 74.1969C243.712 74.1969 243.919 74.7266 244.132 75.2765C244.243 75.5285 244.339 75.8062 244.413 76.003C244.487 76.1998 244.52 76.3211 244.52 76.3211C243.935 75.3511 243.386 74.4362 242.849 73.5619C242.337 72.7023 241.881 71.8925 241.499 71.1932C240.723 69.7541 240.324 68.6691 240.492 68.0821L243.412 72.3483C242.399 70.6696 241.449 69.1472 240.572 67.7353C239.696 66.3233 238.886 65.0017 238.068 63.7259C237.249 62.4501 236.467 61.2295 235.654 59.9739C234.841 58.7184 233.956 57.4386 233.101 56.1076C233.101 56.1076 233.358 56.5806 233.614 57.0535C233.667 57.1694 233.746 57.3001 233.798 57.416C233.871 57.5265 233.924 57.6424 233.966 57.7178C234.081 57.9037 234.133 58.0196 234.133 58.0196C232.891 56.2941 230.679 52.8129 228.374 48.5766C228.217 48.3152 228.081 48.0484 227.939 47.7613C227.803 47.4945 227.661 47.2075 227.524 46.9407C227.382 46.6537 227.246 46.3869 227.109 46.1201C227.051 45.9839 226.973 45.8532 226.909 45.6969L226.809 45.4853C226.773 45.4301 226.725 45.3344 226.72 45.3142C226.578 45.0272 226.416 44.7456 226.274 44.4585C226.132 44.1715 225.985 43.8643 225.843 43.5772C225.224 42.3995 224.669 41.1394 224.095 39.8848C222.971 37.3902 222.055 34.8616 221.33 32.802C221.149 32.2871 220.993 31.787 220.808 31.3382C220.643 30.884 220.529 30.4593 220.386 30.086C220.263 29.7072 220.13 29.3743 220.008 29.0818C219.887 28.7893 219.801 28.5521 219.707 28.3607C219.707 28.3607 219.668 28.4579 219.619 28.601C219.571 28.744 219.493 28.9384 219.435 29.1273C219.325 29.5254 219.21 29.9033 219.21 29.9033C219.21 29.9033 219.146 29.747 219.035 29.4949C218.983 29.379 218.919 29.2227 218.861 29.0866C218.797 28.9302 218.754 28.7685 218.691 28.6121C218.451 27.9611 218.206 27.2899 218.206 27.2899C218.229 27.4571 218.838 27.7055 219.426 27.9593C220.014 28.2132 220.571 28.432 220.457 28.5711C220.255 27.1728 219.831 24.2953 219.843 20.7804C219.849 20.5619 219.835 20.3488 219.836 20.1101C219.843 19.8916 219.87 19.6676 219.871 19.4289C219.898 18.9662 219.926 18.5035 219.954 18.0408C219.955 17.8021 220.002 17.5727 220.023 17.3286C220.044 17.0844 220.071 16.8605 220.112 16.6109C220.16 16.1427 220.218 15.6288 220.291 15.1754C220.584 13.2758 221.066 11.4339 221.699 9.83307C222.331 8.23227 223.106 6.91851 223.942 5.91351C223.992 5.85677 224.036 5.7798 224.086 5.72306L224.241 5.57307L224.37 5.40828L224.525 5.25829C224.73 5.05155 224.94 4.86504 225.135 4.70419C225.561 4.35138 226.008 4.07946 226.4 3.84406C226.496 3.79668 226.606 3.72364 226.702 3.67626C226.797 3.62888 226.893 3.58149 226.989 3.53411C227.084 3.48673 227.185 3.45958 227.266 3.43786C227.307 3.42699 227.362 3.39047 227.402 3.37961C227.443 3.36874 227.483 3.35788 227.524 3.34701C227.625 3.31985 227.665 3.30899 227.741 3.26704C227.801 3.25074 227.867 3.25467 227.948 3.23295C227.989 3.22208 228.009 3.21665 228.049 3.20579C228.09 3.19492 228.115 3.20971 228.136 3.20428C228.196 3.18799 228.262 3.19191 228.323 3.17561C228.784 3.11677 229.151 3.19164 229.385 3.25865C229.468 3.32324 229.524 3.37304 229.561 3.42827C229.676 3.6142 229.679 3.78683 229.636 3.95011C229.593 4.11339 229.504 4.26732 229.445 4.36993C229.4 4.44689 229.371 4.4982 229.376 4.51842C229.396 4.51299 229.417 4.50756 229.431 4.4819C229.573 4.44388 229.683 4.37085 229.753 4.30868C229.823 4.24651 229.873 4.18977 229.918 4.11281C229.967 4.05607 230.017 3.99932 230.078 3.98303C230.159 3.9613 230.25 3.98002 230.399 4.04854C230.466 4.13879 230.392 4.26705 230.313 4.37509C230.213 4.48857 230.108 4.58184 230.053 4.61835C230.18 4.60598 230.273 4.71102 230.35 4.75539C230.401 4.78497 230.401 4.78496 230.442 4.7741C230.482 4.76323 230.537 4.72672 230.587 4.66998C230.494 4.56495 230.553 4.46233 230.561 4.33014C230.589 4.19251 230.617 4.05489 230.686 3.9064C230.797 3.59463 230.949 3.272 230.974 2.96174C230.974 2.96174 230.995 2.95629 231.026 2.9913C231.051 3.00609 231.103 3.03568 231.128 3.05047C231.154 3.06526 231.18 3.08004 231.205 3.09483C231.231 3.10962 231.256 3.12441 231.282 3.1392C231.333 3.16878 231.41 3.21316 231.493 3.27775C231.646 3.36649 231.806 3.47545 231.919 3.57506C232.053 3.66923 232.135 3.73382 232.135 3.73382L231.771 4.15664C231.848 4.20101 231.975 4.18864 232.162 4.15998C232.344 4.11109 232.598 4.08635 232.877 4.0764C233.009 4.08425 233.161 4.08668 233.324 4.12954C233.488 4.17241 233.651 4.21526 233.825 4.29856C234.153 4.47061 234.513 4.76399 234.851 5.21522C236.089 6.68178 237.435 8.55277 238.72 10.6788C239.039 11.2218 239.352 11.7445 239.687 12.3482C239.855 12.65 240.017 12.9316 240.179 13.2132C240.341 13.4948 240.489 13.802 240.656 14.1039C240.818 14.3855 240.966 14.6927 241.128 14.9743C241.275 15.2816 241.417 15.5686 241.579 15.8502C241.889 16.439 242.152 17.0185 242.421 17.6182C242.093 17.6849 241.443 16.7973 240.758 15.9407C240.906 16.248 241.115 16.6252 241.304 17.0079C241.473 17.3961 241.642 17.7842 241.668 18.1241C241.657 17.4335 241.994 17.8847 242.297 18.367C242.6 18.8494 242.858 19.4086 242.768 18.9124C244.188 20.3301 245.116 22.3354 245.865 24.3235C246.635 26.3061 247.252 28.2863 248.206 29.7426C248.525 29.7218 250.063 29.7204 252.247 29.7838C254.432 29.8473 257.221 29.9865 260.032 30.2067C262.838 30.4066 265.665 30.6874 267.873 30.918C270.08 31.1487 271.676 31.2834 272.025 31.2113C272.315 32.4556 272.565 33.7109 272.547 34.1277C272.665 33.9225 272.643 33.1915 272.507 32.3609C272.371 31.5303 272.116 30.5799 271.862 29.9545L271.054 29.933C270.517 28.4949 270.59 28.2803 270.668 28.0859C270.766 27.8861 270.884 27.6809 270.433 26.2412C270.715 26.0789 271.085 26.6514 271.481 27.5638C271.857 28.4816 272.259 29.7393 272.574 30.9122C272.126 28.7563 271.93 26.4894 271.015 25.8247C270.845 24.7865 271.044 24.7983 271.24 24.7237C271.422 24.6749 271.608 24.5599 271.364 23.3248C271.01 22.4879 270.481 21.5676 270.008 20.6109C269.772 20.1325 269.53 19.6339 269.354 19.1392C269.173 18.6243 269.017 18.1242 268.922 17.6078L269.049 17.5954C268.474 15.1268 267.507 13.4575 266.555 11.8488C265.584 10.2455 264.634 8.72313 263.897 6.53676L264.314 6.87993C263.941 5.2459 262.054 2.65294 260.937 -0.0601075C261.235 0.727034 261.183 1.58631 260.265 0.0989321C260.121 -0.274417 259.921 -0.697575 259.737 -1.06006C259.548 -1.44277 259.37 -1.78503 259.166 -2.14208C258.783 -2.8414 258.377 -3.46917 257.976 -4.07674C257.168 -5.3121 256.407 -6.45178 255.684 -7.77496C255.684 -7.77496 255.123 -8.25276 254.547 -8.7049C254.269 -8.93368 253.965 -9.17725 253.749 -9.33601C253.528 -9.515 253.369 -9.62397 253.369 -9.62397C252.83 -10.2596 252.158 -10.9894 251.295 -11.8632C250.432 -12.737 249.359 -13.7493 247.929 -14.8824C247.193 -15.4435 246.401 -16.0544 245.462 -16.6475C245.226 -16.8008 244.99 -16.9541 244.734 -17.102C244.477 -17.2499 244.236 -17.4235 243.959 -17.566C243.683 -17.7084 243.421 -17.8765 243.119 -18.0338C242.991 -18.1077 242.837 -18.1965 242.688 -18.265C242.535 -18.3537 242.386 -18.4223 242.212 -18.5056C241.884 -18.6776 241.542 -18.824 241.219 -18.9758C240.877 -19.1222 240.529 -19.2888 240.186 -19.4352C239.481 -19.7226 238.735 -19.9991 237.954 -20.2445C236.392 -20.7353 234.705 -21.1274 232.863 -21.3695C232.461 -21.4133 232.06 -21.4571 231.643 -21.4752C231.226 -21.4933 230.819 -21.5573 230.388 -21.5498C229.54 -21.5604 228.666 -21.5858 227.799 -21.5046C226.024 -21.4178 224.176 -21.1163 222.326 -20.6625C221.861 -20.5375 221.396 -20.4126 220.931 -20.2877C220.471 -20.1425 219.997 -19.9717 219.558 -19.832C219.098 -19.6868 218.67 -19.5067 218.241 -19.3265C217.813 -19.1463 217.364 -18.9607 216.941 -18.7603C216.518 -18.56 216.095 -18.3596 215.677 -18.139C215.259 -17.9184 214.847 -17.6775 214.43 -17.4569C214.012 -17.2363 213.625 -16.9807 213.219 -16.7196C212.812 -16.4586 212.425 -16.2029 212.044 -15.9271C210.473 -14.8331 209.001 -13.6138 207.633 -12.2491C207.294 -11.8978 206.949 -11.5667 206.616 -11.1952L206.132 -10.6534C205.963 -10.4778 205.798 -10.2819 205.649 -10.1117C205.356 -9.75103 205.062 -9.39038 204.769 -9.02973C204.481 -8.64885 204.207 -8.29362 203.94 -7.91817C202.868 -6.41638 201.92 -4.86088 201.104 -3.29752C200.287 -1.73415 199.623 -0.168363 199.04 1.37569C198.457 2.91975 197.975 4.43665 197.594 5.92639C197.213 7.41612 196.882 8.84912 196.652 10.255C196.592 10.5963 196.537 10.9579 196.477 11.2992C196.416 11.6406 196.356 11.9819 196.336 12.3124C196.256 12.9842 196.191 13.6304 196.106 14.282C195.929 15.5651 195.894 16.81 195.823 17.9998C195.604 22.7627 195.984 26.606 196.223 29.0347L196.073 28.5548C196.129 29.1684 196.225 29.7711 196.307 30.3995C196.389 31.0279 196.496 31.6711 196.588 32.3399C196.701 33.0033 196.834 33.6612 196.952 34.3449C197.091 35.023 197.194 35.7323 197.358 36.4253C197.522 37.1182 197.671 37.8369 197.846 38.5703C197.923 38.9397 198.021 39.3037 198.118 39.6677C198.216 40.0317 198.313 40.3957 198.411 40.7597C198.786 42.2413 199.268 43.716 199.72 45.242C200.721 48.2465 201.874 51.3399 203.164 54.375C203.312 54.6822 203.439 54.9949 203.592 55.3224C203.603 55.3628 203.628 55.3776 203.639 55.4181L203.681 55.4935C203.728 55.5892 203.77 55.6646 203.817 55.7603C203.912 55.9517 204.021 56.1174 204.136 56.3033C205.055 57.7907 206.367 59.454 208.1 61.6332C207.54 61.2417 207.377 61.1988 207.353 61.2704C207.328 61.3419 207.423 61.5332 207.28 61.4849C207.553 61.6935 207.96 62.0826 208.311 62.4218C208.662 62.7611 208.962 63.0707 208.978 63.1314C209.242 63.7109 209.521 64.026 209.914 64.4407C210.121 64.6453 210.338 64.8904 210.603 65.2312C210.738 65.4117 210.873 65.5922 211.024 65.8333C211.155 66.0799 211.292 66.3467 211.363 66.6959C211.449 66.9331 211.499 67.2015 211.478 67.4456C211.456 67.6898 211.369 67.93 211.189 68.0652C211.008 68.2004 210.78 68.24 210.556 68.2134C210.312 68.1923 210.052 68.1105 209.772 68.0341C209.205 67.8611 208.591 67.5925 207.956 67.243C207.321 66.8935 206.684 66.4576 206.076 65.9705C204.847 65.0218 203.787 63.8975 203.004 62.9157C202.221 61.9339 201.7 61.1201 201.452 60.6013C201.283 60.777 201.105 60.7598 200.92 60.636C200.735 60.5123 200.549 60.3022 200.362 60.0921C200.196 59.8766 200.025 59.6409 199.844 59.451C199.663 59.2612 199.467 59.097 199.201 58.995C199.201 58.995 199.262 58.9787 199.297 58.9476C199.358 58.9313 199.393 58.9002 199.393 58.9002C199.285 58.8208 199.135 58.666 198.969 58.4505C198.932 58.3953 198.876 58.3455 198.834 58.27C198.73 58.1245 198.626 57.979 198.502 57.839C198.335 57.6235 198.159 57.3676 197.967 57.1373C197.204 56.15 196.399 55.0873 195.502 54.0059C194.621 52.8988 193.653 51.7932 192.648 50.6324C192.131 50.0776 191.614 49.5229 191.071 48.9533L190.865 48.7487L190.658 48.5441C190.514 48.4094 190.39 48.2694 190.245 48.1348C189.977 47.8601 189.688 47.5909 189.394 47.3014C187.123 45.1367 184.656 43.0466 182.098 41.5878L181.135 41.0663C180.981 40.9775 180.827 40.8888 180.653 40.8055L180.188 40.6053C179.871 40.4737 179.549 40.3219 179.232 40.1903C178.915 40.0587 178.592 39.9069 178.281 39.7955C177.034 39.35 175.78 39.0366 174.498 38.8609C173.216 38.6852 171.87 38.6783 170.568 38.833C169.246 38.9932 167.972 39.3355 166.832 39.7718C165.698 40.2284 164.691 40.759 163.822 41.3176C162.953 41.8762 162.182 42.4738 161.537 43.059C160.226 44.2348 159.331 45.3424 158.766 46.1446C158.766 46.1446 158.936 45.969 159.126 45.7879C159.316 45.6068 159.491 45.4514 159.491 45.4514C158.985 46.151 158.589 46.7775 158.238 47.3271C157.887 47.8767 157.6 48.3439 157.338 48.7396C157.279 48.8422 157.214 48.9246 157.155 49.0272C157.096 49.1298 157.036 49.2324 156.997 49.3296C156.894 49.5092 156.79 49.6887 156.681 49.8481C156.463 50.1668 156.28 50.4544 156.092 50.7218C155.904 50.9892 155.689 51.2418 155.475 51.4945C155.381 51.6282 155.267 51.7673 155.152 51.9064C155.038 52.0456 154.924 52.1847 154.825 52.3845C154.417 53.123 153.941 54.0963 153.325 55.5191C153.619 55.4835 153.707 55.8933 153.688 56.5489C153.694 57.2192 153.624 58.1702 153.503 59.178C153.446 59.6919 153.369 60.2114 153.291 60.7308C153.255 61.0006 153.214 61.2502 153.172 61.4998C153.136 61.7696 153.115 62.0138 153.079 62.2836C152.938 63.2968 152.817 64.2182 152.686 64.8605L152.49 64.6963C152.407 65.1955 152.294 65.746 152.255 66.407C152.21 67.0477 152.141 67.76 152.082 68.5127C152.053 68.8891 152.024 69.2654 151.98 69.6674C151.968 69.8657 151.956 70.064 151.924 70.2677C151.911 70.3797 151.912 70.466 151.899 70.578C151.9 70.6643 151.902 70.7506 151.903 70.837C151.905 70.9233 151.906 71.0096 151.908 71.0959L151.901 71.3144C151.899 71.4669 151.911 71.5936 151.908 71.746C151.898 72.0306 151.913 72.33 151.908 72.6349C151.903 72.9397 151.918 73.2391 151.913 73.5439C151.929 73.8433 151.924 74.1482 151.944 74.4678C151.96 75.0922 151.97 75.6965 152.006 76.3155C152.016 76.9197 152.072 77.5333 152.077 78.1173C152.102 78.6959 152.107 79.2799 152.121 79.8181L151.555 79.6451C151.712 80.5566 151.797 81.6826 151.898 82.8694C151.949 83.4627 152.005 84.0763 152.041 84.6954C152.062 85.015 152.077 85.3144 152.097 85.634C152.118 85.9536 152.153 86.2476 152.174 86.5672C152.23 87.1808 152.266 87.7998 152.317 88.3932C152.367 88.9866 152.433 89.5543 152.487 90.0815C152.542 90.6088 152.611 91.1104 152.644 91.5568C152.697 91.9978 152.76 92.3928 152.821 92.7016C152.91 93.4365 152.974 94.243 153.069 95.0844C153.185 95.9205 153.291 96.8024 153.408 97.7247C153.566 98.6362 153.709 99.5733 153.883 100.545C154.077 101.512 154.296 102.494 154.501 103.501C154.977 105.519 155.612 107.646 156.491 109.795C157.364 111.923 158.482 114.072 159.922 116.048C159.922 116.048 160.045 116.427 160.248 117.023C160.349 117.321 160.482 117.653 160.625 118.027C160.769 118.4 160.918 118.794 161.087 119.182C161.256 119.57 161.45 119.973 161.614 120.341C161.798 120.703 161.981 121.066 162.123 121.353C162.291 121.655 162.402 121.907 162.511 122.072C162.621 122.238 162.668 122.334 162.668 122.334L163.491 122.98C163.491 122.98 163.572 122.958 163.734 122.914C163.895 122.871 164.118 122.811 164.395 122.715C164.976 122.537 165.789 122.254 166.696 121.837C167.159 121.626 167.637 121.389 168.151 121.121C168.658 120.832 169.181 120.519 169.698 120.185C170.728 119.496 171.765 118.676 172.729 117.744C173.693 116.813 174.595 115.812 175.394 114.752C175.797 114.232 176.168 113.677 176.499 113.133C176.667 112.871 176.804 112.574 176.972 112.312C177.141 112.05 177.283 111.773 177.431 111.517C178.012 110.45 178.488 109.477 178.863 108.531C178.956 108.311 179.043 108.07 179.121 107.876C179.194 107.661 179.266 107.447 179.318 107.238C179.429 106.84 179.513 106.427 179.522 106.056L180.004 105.753C180.004 105.753 179.973 105.718 179.916 105.668C179.854 105.598 179.792 105.528 179.704 105.443C179.637 105.353 179.555 105.288 179.492 105.218C179.43 105.148 179.394 105.093 179.394 105.093C179.336 104.957 179.283 104.841 179.21 104.73C179.157 104.615 179.084 104.504 179.017 104.414C178.882 104.233 178.752 104.073 178.659 103.968C178.561 103.843 178.498 103.773 178.477 103.692C178.46 103.631 178.51 103.575 178.646 103.516C178.646 103.516 178.652 103.536 178.688 103.592C178.719 103.627 178.736 103.687 178.777 103.763C178.819 103.838 178.861 103.914 178.909 104.009C178.956 104.105 179.003 104.201 179.071 104.291C179.18 104.457 179.28 104.668 179.353 104.779C179.431 104.909 179.494 104.979 179.494 104.979C179.435 104.843 179.388 104.748 179.346 104.672C179.319 104.571 179.303 104.51 179.312 104.465C179.305 104.358 179.366 104.342 179.458 104.36C179.549 104.379 179.652 104.438 179.795 104.487C179.918 104.54 180.061 104.589 180.183 104.642C180.136 104.547 180.083 104.431 180.036 104.335C179.989 104.239 179.936 104.124 179.909 104.022C179.862 103.927 179.829 103.805 179.802 103.704C179.769 103.583 179.763 103.476 179.736 103.375C179.424 103.264 179.613 103.647 179.607 103.865C179.488 103.745 179.323 103.616 179.179 103.482C179.014 103.352 178.859 103.177 178.683 103.008C178.373 102.658 178.081 102.216 178.012 101.714C177.943 101.538 177.905 101.396 177.893 101.269C177.88 101.142 177.879 101.056 177.908 101.005C177.957 100.862 178.052 100.814 178.143 100.747C178.233 100.679 178.323 100.612 178.361 100.428C178.398 100.245 178.353 99.9965 178.214 99.5571C178.031 98.9558 177.843 98.3344 177.684 97.6617L177.554 97.1763C177.511 97.0145 177.482 96.8271 177.439 96.6653L177.209 95.6434C177.045 94.9504 176.947 94.2614 176.803 93.563C176.665 92.8848 176.581 92.1701 176.483 91.4811C176.086 88.7047 175.897 85.8942 175.885 83.1009C175.873 80.3076 176.034 77.5113 176.368 74.712L176.484 73.7703C176.493 73.7244 176.499 73.7447 176.499 73.7447L176.493 73.7244L176.508 73.6988C176.517 73.6529 176.527 73.607 176.536 73.5612C176.555 73.4694 176.574 73.3777 176.592 73.2859C176.808 73.4447 176.788 73.4501 176.876 73.5349C176.792 73.384 176.78 73.2572 176.767 73.1305C176.764 72.9578 176.782 72.7798 176.784 72.6274C176.977 72.944 177.153 73.4387 177.266 73.777C177.202 73.6206 177.159 73.4589 177.198 73.3617C177.211 73.2497 177.292 73.228 177.358 73.2319C177.568 73.3705 177.683 73.5564 177.628 73.5929Z" fill="white" fill-opacity="0.2"/>
</g>
<defs>
<clipPath id="clip0_379_4851">
<rect width="267" height="221" rx="16" fill="white"/>
</clipPath>
</defs>
</svg>
