<svg xmlns="http://www.w3.org/2000/svg" width="77" height="50" viewBox="0 0 77 50" fill="none">
  <g clip-path="url(#clip0_591_8263)">
    <path d="M62.5336 51.3455C61.1881 51.1294 60.0138 50.4969 59.1182 49.6021L59.1846 73.0971C59.1906 75.2547 60.9416 76.9995 63.0978 76.9995C63.1015 76.9995 63.1055 76.9995 63.1092 76.9995C65.2706 76.9934 67.0177 75.2363 67.0115 73.075L66.9475 50.3997C65.6912 51.2256 64.1349 51.6027 62.5336 51.3455Z" fill="#FFAF87"/>
    <path d="M17.0818 13.5181C20.8147 13.5181 23.8408 10.4919 23.8408 6.75903C23.8408 3.02612 20.8147 0 17.0818 0C13.3489 0 10.3228 3.02612 10.3228 6.75903C10.3228 10.4919 13.3489 13.5181 17.0818 13.5181Z" fill="#FF5500"/>
    <path d="M33.927 27.8704L23.6863 26.6691L16.9892 20.0146L23.3416 23.345L25.6836 23.6198V20.727C25.6836 18.2053 23.6395 16.1611 21.1178 16.1611H12.9752C10.4536 16.1611 8.4094 18.2055 8.4094 20.727L8.32912 73.0752C8.3231 75.2365 10.0702 76.9934 12.2315 76.9996C12.2353 76.9996 12.239 76.9996 12.2428 76.9996C14.3989 76.9996 16.15 75.2548 16.1561 73.0973L16.2378 44.1643C16.2378 44.1607 16.2377 44.157 16.2377 44.1533H17.9254L17.9276 73.0866C17.9278 75.248 19.6801 76.9998 21.8413 76.9998C24.0027 76.9995 25.7547 75.2473 25.7546 73.0859C25.7519 38.2762 25.6836 36.7543 25.6836 36.7543L21.4272 36.2549C20.1139 36.1009 18.5249 36.1308 17.5898 34.4038L12.3919 24.6419L19.8883 32.0905C20.4063 32.6051 21.0818 32.9309 21.807 33.0161L33.167 34.3486C34.9623 34.558 36.5768 33.2731 36.7861 31.4894C36.996 29.7006 35.7158 28.0803 33.927 27.8704Z" fill="#FF5500"/>
    <path d="M58.2585 13.5181C61.9915 13.5181 65.0176 10.4919 65.0176 6.75903C65.0176 3.02612 61.9915 0 58.2585 0C54.5256 0 51.4995 3.02612 51.4995 6.75903C51.4995 10.4919 54.5256 13.5181 58.2585 13.5181Z" fill="#FFAF87"/>
    <path d="M68.4839 32.3496L64.6225 21.4462L66.9314 24.878V20.727C66.9314 18.2053 64.8873 16.1611 62.3656 16.1611H54.2232C51.7015 16.1611 49.6574 18.2055 49.6574 20.727V21.8872L39.2041 27.8627C39.8778 29.0341 40.1949 30.4241 40.0253 31.8695C39.8092 33.7112 38.8448 35.2815 37.4727 36.3163C37.8334 36.1802 36.9975 36.6369 49.6574 29.4002C49.6574 29.4002 49.5886 43.5532 49.5865 73.0859C49.5863 75.2473 51.3383 76.9995 53.4997 76.9998H53.5C55.6613 76.9998 57.4134 75.2478 57.4136 73.0866L57.4156 46.4559C57.2651 45.7325 57.2401 44.9705 57.3642 44.1974L57.3713 44.1533L59.2509 32.4492L58.5365 24.3248L58.4743 23.6236L62.058 33.7429L60.3032 44.6696C60.0175 46.4478 61.2278 48.121 63.006 48.4067C64.7881 48.6924 66.458 47.479 66.7431 45.7039L68.6299 33.9557C68.7162 33.4165 68.6662 32.8644 68.4839 32.3496Z" fill="#FFAF87"/>
  </g>
  <defs>
    <clipPath id="clip0_591_8263">
      <rect width="77" height="50" fill="white"/>
    </clipPath>
  </defs>
</svg>