<svg xmlns="http://www.w3.org/2000/svg" width="20" height="20" viewBox="0 0 20 20" fill="none">
  <path d="M18.6563 1.49618C18.6406 1.42587 18.586 1.37118 18.5195 1.35165C16.2305 0.793053 10.9453 2.78524 8.08204 5.64852C7.57033 6.15633 7.10548 6.70712 6.69142 7.29305C5.80861 7.21493 4.9258 7.28133 4.17189 7.60946C2.04689 8.54305 1.4297 10.9845 1.25392 12.0313C1.21876 12.2345 1.35548 12.4298 1.56251 12.4649C1.59767 12.4688 1.63283 12.4727 1.66798 12.4688L5.07814 12.0938C5.08204 12.3516 5.09767 12.6095 5.12501 12.8634C5.14064 13.0391 5.22267 13.2071 5.34767 13.3321L6.66798 14.6485C6.79298 14.7735 6.96095 14.8556 7.13673 14.8712C7.39064 14.8985 7.64454 14.9141 7.90236 14.9181L7.52736 18.3243C7.50392 18.5313 7.65626 18.7188 7.86329 18.7384C7.89845 18.7423 7.93361 18.7423 7.96486 18.7345C9.01173 18.5665 11.457 17.9493 12.3867 15.8243C12.7149 15.0704 12.7813 14.1915 12.707 13.3126C13.2969 12.8985 13.8477 12.4298 14.3555 11.922C17.2266 9.06649 19.207 3.89852 18.6563 1.49618ZM14.1367 8.5118C13.4063 9.24227 12.2188 9.24618 11.4883 8.5118C10.7539 7.78133 10.7539 6.59383 11.4883 5.85946C12.2188 5.12508 13.4063 5.12508 14.1406 5.85946C14.8711 6.59383 14.8711 7.78133 14.1367 8.5118Z" fill="#757575"/>
  <path d="M6.57812 15.6016C6.36328 15.8164 6.01953 15.8984 5.60547 15.9726C4.67578 16.1289 3.85547 15.3281 4.02344 14.3906C4.08594 14.0351 4.27734 13.5351 4.39453 13.418C4.46094 13.3516 4.46484 13.2422 4.39844 13.1758C4.35937 13.1367 4.30859 13.1172 4.25391 13.125C3.73437 13.1875 3.25 13.4258 2.88281 13.793C1.96094 14.7148 1.875 18.125 1.875 18.125C1.875 18.125 5.28906 18.0391 6.20703 17.1172C6.57812 16.7461 6.8125 16.2656 6.875 15.7422C6.89062 15.582 6.69141 15.4844 6.57812 15.6016Z" fill="#757575"/>
</svg>