<svg xmlns="http://www.w3.org/2000/svg" width="36" height="36" viewBox="0 0 36 36" fill="none">
  <g clip-path="url(#clip0_141_6411)">
    <path d="M35.9062 13.8094C35.6705 13.0805 35.0239 12.5627 34.259 12.4938L23.8684 11.5503L19.7597 1.93347C19.4567 1.22868 18.7668 0.772461 18.0002 0.772461C17.2336 0.772461 16.5436 1.22868 16.2407 1.93512L12.132 11.5503L1.73973 12.4938C0.976156 12.5644 0.331242 13.0805 0.0942056 13.8094C-0.14283 14.5384 0.0760777 15.338 0.653699 15.842L8.50775 22.73L6.19177 32.9319C6.02231 33.682 6.31345 34.4574 6.93584 34.9073C7.27038 35.149 7.66178 35.2721 8.05648 35.2721C8.39679 35.2721 8.73435 35.1803 9.03731 34.999L18.0002 29.6423L26.9598 34.999C27.6154 35.3935 28.4419 35.3575 29.0629 34.9073C29.6855 34.456 29.9764 33.6804 29.8069 32.9319L27.491 22.73L35.345 15.8433C35.9226 15.338 36.1432 14.5398 35.9062 13.8094Z" fill="#FFC107"/>
  </g>
  <defs>
    <clipPath id="clip0_141_6411">
      <rect width="36" height="36" fill="white"/>
    </clipPath>
  </defs>
</svg>