<svg xmlns="http://www.w3.org/2000/svg" width="16" height="16" viewBox="0 0 16 16" fill="none">
  <g clip-path="url(#clip0_406_2895)">
    <path d="M13.3121 12.5778H7.28492C7.08859 11.8924 6.54579 11.3524 5.85874 11.16V0.6341C5.85874 0.374522 5.64831 0.164062 5.3887 0.164062H1.72062C1.46101 0.164062 1.25058 0.374522 1.25058 0.6341C1.25058 0.893678 1.46101 1.10414 1.72062 1.10414H4.91866V11.1201C3.96578 11.3011 3.24286 12.1396 3.24286 13.1444C3.24286 14.2808 4.16743 15.2053 5.3038 15.2053C6.31259 15.2053 7.15384 14.4765 7.33016 13.5179H13.3121C13.5717 13.5179 13.7822 13.3075 13.7822 13.0479C13.7822 12.7883 13.5717 12.5778 13.3121 12.5778ZM5.3038 14.2652C4.68576 14.2652 4.18294 13.7624 4.18294 13.1443C4.18294 12.5263 4.68576 12.0236 5.3038 12.0236C5.92184 12.0236 6.42463 12.5263 6.42463 13.1443C6.42466 13.7624 5.92184 14.2652 5.3038 14.2652ZM7.75284 11.1537H13.1812C13.4409 11.1537 13.6513 10.9433 13.6513 10.6837V5.25542C13.6513 4.99584 13.4409 4.78538 13.1812 4.78538H7.75284C7.49324 4.78538 7.28281 4.99584 7.28281 5.25542V10.6837C7.28281 10.9433 7.49324 11.1537 7.75284 11.1537ZM8.22288 5.72546H9.99701V6.96985C9.99701 7.22943 10.2074 7.43989 10.467 7.43989C10.7267 7.43989 10.9371 7.22943 10.9371 6.96985V5.72546H12.7112V10.2137H8.22288V5.72546ZM14.7428 2.25685L13.8683 3.4674C13.7764 3.5946 13.6327 3.66223 13.4869 3.66223C13.3916 3.66223 13.2953 3.63329 13.2121 3.57319C13.0017 3.42116 12.9543 3.12735 13.1063 2.91692L13.4424 2.45168H7.90981C7.6502 2.45168 7.43977 2.24122 7.43977 1.98164C7.43977 1.72206 7.6502 1.5116 7.90981 1.5116H13.4424L13.1063 1.04635C12.9543 0.835922 13.0016 0.542119 13.2121 0.390092C13.4226 0.238064 13.7164 0.28542 13.8684 0.49588L14.7428 1.70637C14.8615 1.87068 14.8615 2.09257 14.7428 2.25685Z" fill="black"/>
  </g>
  <defs>
    <clipPath id="clip0_406_2895">
      <rect width="15.0412" height="15.0412" fill="white" transform="translate(0.520599 0.164062)"/>
    </clipPath>
  </defs>
</svg>