<svg xmlns="http://www.w3.org/2000/svg" width="53" height="52" viewBox="0 0 53 52" fill="none">
  <path d="M52.5 26C52.5 40.3594 40.8594 52 26.5 52C12.1406 52 0.5 40.3594 0.5 26C0.5 11.6406 12.1406 0 26.5 0C40.8594 0 52.5 11.6406 52.5 26Z" fill="url(#paint0_linear_20_4363)"/>
  <path d="M26.8566 13.9009C27.7706 13.9009 28.596 14.1534 29.4757 14.564C30.3317 14.9635 31.3194 15.5537 32.5382 16.2798L34.1808 17.2583L35.1398 17.8306C36.0505 18.3786 36.8166 18.8587 37.4347 19.3237C38.2809 19.9604 38.9382 20.6327 39.3683 21.5298L39.5158 21.8687C39.8249 22.6629 39.9057 23.4927 39.8742 24.4165C39.8478 25.1866 39.7398 26.0802 39.5939 27.1274L39.4377 28.228L39.1066 30.5259C38.8288 32.4561 38.6048 34.019 38.2755 35.2476H35.841C35.8977 35.0864 35.954 34.9113 36.007 34.7192C36.3014 33.6529 36.5076 32.2324 36.8009 30.1938L37.132 27.896L37.2892 26.7925C37.4311 25.7721 37.5247 24.9895 37.547 24.3364C37.5757 23.4951 37.4789 22.9764 37.2687 22.5376V22.5366C37.058 22.0972 36.712 21.6949 36.0343 21.1851C35.5091 20.7899 34.8376 20.3687 33.9503 19.8345L32.9884 19.2593L31.3459 18.2808C30.0871 17.5309 29.2155 17.0128 28.4904 16.6743C27.7895 16.3472 27.3112 16.231 26.8566 16.231C26.4018 16.231 25.923 16.3471 25.2218 16.6743C24.6779 16.9282 24.0516 17.2834 23.2414 17.7612L22.3664 18.2808L20.7238 19.2593C19.3381 20.0848 18.3782 20.6582 17.6779 21.1851C17.085 21.6312 16.7459 21.9951 16.5294 22.3735L16.4445 22.5366C16.2342 22.9755 16.1375 23.4947 16.1662 24.3364C16.1959 25.2072 16.3526 26.3073 16.5812 27.896L16.9113 30.1938L17.1183 31.6108C17.314 32.9203 17.4854 33.9194 17.7062 34.7192C17.7593 34.9114 17.8164 35.0863 17.8732 35.2476H15.4357C15.1909 34.3339 15.0052 33.2351 14.8117 31.938L14.6056 30.5259L14.2755 28.228C14.0542 26.6899 13.8732 25.4435 13.838 24.4165C13.802 23.3607 13.9135 22.4277 14.3439 21.5298L14.5158 21.2036C14.9413 20.4653 15.5371 19.8808 16.2775 19.3237C17.1016 18.7037 18.1898 18.0581 19.5324 17.2583L21.174 16.2798L22.047 15.7612C22.8789 15.2704 23.5946 14.8636 24.2365 14.564C25.1164 14.1533 25.9424 13.9009 26.8566 13.9009Z" fill="white"/>
  <path d="M47.9522 32.3894C47.9522 32.8614 47.5746 33.3335 47.0082 33.3335C46.5361 33.3335 46.0641 32.9559 46.0641 32.3894C46.0641 31.823 45.8753 31.2565 45.592 30.7845C41.5325 35.5049 34.2631 38.3371 26.2384 38.3371C18.2137 38.3371 10.9442 35.5049 6.88469 30.7845C6.69588 31.1621 6.50706 31.7285 6.50706 32.3894C6.50706 32.8614 6.12943 33.3335 5.56298 33.3335C5.09094 33.3335 4.6189 32.9559 4.6189 32.3894C4.6189 29.5572 6.9791 27.197 9.81134 27.197C10.2834 27.197 10.7554 27.5746 10.7554 28.141C10.7554 28.6131 10.3778 29.0851 9.81134 29.0851C9.24489 29.0851 8.67845 29.2739 8.20641 29.5572C11.8883 33.8999 18.6857 36.5434 26.3328 36.5434C33.9798 36.5434 40.6828 33.8999 44.4591 29.5572C43.9871 29.2739 43.4206 29.0851 42.8542 29.0851C42.3822 29.0851 41.9101 28.7075 41.9101 28.141C41.9101 27.669 42.2877 27.197 42.8542 27.197C45.6864 27.1026 47.9522 29.4628 47.9522 32.3894Z" fill="white"/>
  <defs>
    <linearGradient id="paint0_linear_20_4363" x1="0.5" y1="0" x2="38.5642" y2="60.7341" gradientUnits="userSpaceOnUse">
      <stop stop-color="#FFBC54"/>
      <stop offset="0.48" stop-color="#FF6F30"/>
      <stop offset="1" stop-color="#FF386D"/>
    </linearGradient>
  </defs>
</svg>