<svg xmlns="http://www.w3.org/2000/svg" width="16" height="16" viewBox="0 0 16 16" fill="none">
  <g clip-path="url(#clip0_406_2863)">
    <path d="M10.3915 4.65785H11.8016V12.1784H10.3915V13.1185H12.7417V3.71777H10.3915V4.65785Z" fill="black"/>
    <path d="M9.4514 3.71777H8.51132V4.65785H9.4514V3.71777Z" fill="black"/>
    <path d="M7.57124 3.71777H6.63116V4.65785H7.57124V3.71777Z" fill="black"/>
    <path d="M4.28099 4.65785H5.6911V3.71777H3.34091V13.1185H5.6911V12.1784H4.28099V4.65785Z" fill="black"/>
    <path d="M7.57124 12.1787H6.63116V13.1188H7.57124V12.1787Z" fill="black"/>
    <path d="M9.4514 12.1787H8.51132V13.1188H9.4514V12.1787Z" fill="black"/>
    <path d="M2.40084 3.71777H0.520691V4.65785H2.40084V3.71777Z" fill="black"/>
    <path d="M2.40084 12.1787H0.520691V13.1188H2.40084V12.1787Z" fill="black"/>
    <path d="M15.5619 3.71777H13.6817V4.65785H15.5619V3.71777Z" fill="black"/>
    <path d="M15.5619 12.1787H13.6817V13.1188H15.5619V12.1787Z" fill="black"/>
    <path d="M4.28099 14.0586H3.34091V15.9387H4.28099V14.0586Z" fill="black"/>
    <path d="M12.7416 14.0586H11.8016V15.9387H12.7416V14.0586Z" fill="black"/>
    <path d="M4.28099 0.897461H3.34091V2.77761H4.28099V0.897461Z" fill="black"/>
    <path d="M12.7416 0.897461H11.8016V2.77761H12.7416V0.897461Z" fill="black"/>
    <path d="M8.04129 11.2381H10.8615V8.41788H9.92144V9.6334L6.82578 6.53773H8.04129V5.59766H5.22107V8.41788H6.16114V7.20236L9.25681 10.298H8.04129V11.2381Z" fill="black"/>
  </g>
  <defs>
    <clipPath id="clip0_406_2863">
      <rect width="15.0412" height="15.0412" fill="white" transform="translate(0.520599 0.897461)"/>
    </clipPath>
  </defs>
</svg>