<svg width="467" height="156" viewBox="0 0 467 156" fill="none" xmlns="http://www.w3.org/2000/svg">
<path d="M44.4866 96.8011H28.736V33.6336H5V17.8279H68.1677V33.6336H44.4866V96.8011ZM89.9761 96.8011H74.9414V14.3584H89.9761V40.4075C91.7751 39.049 93.6293 38.0944 95.5382 37.5437C97.4477 36.9562 99.3936 36.6625 101.376 36.6625C105.011 36.6625 108.425 37.3601 111.619 38.7552C114.813 40.1137 117.585 42.0045 119.935 44.4277C122.321 46.8141 124.194 49.6228 125.552 52.8537C126.947 56.0479 127.645 59.4623 127.645 63.0971V96.8011H112.501V63.0971H112.611C112.611 61.555 112.317 60.1048 111.729 58.7464C111.142 57.3512 110.334 56.1396 109.306 55.1116C108.278 54.0837 107.085 53.2759 105.726 52.6885C104.368 52.101 102.918 51.8073 101.376 51.8073C99.7975 51.8073 98.3101 52.101 96.915 52.6885C95.52 53.2759 94.3083 54.0837 93.2801 55.1116C92.2524 56.1396 91.4447 57.3512 90.8574 58.7464C90.2695 60.1048 89.9761 61.555 89.9761 63.0971V96.8011ZM161.845 82.3725C162.433 82.5559 163.02 82.684 163.607 82.7575C164.195 82.7946 164.782 82.8128 165.37 82.8128C166.838 82.8128 168.252 82.6112 169.61 82.2073C170.968 81.8034 172.235 81.2343 173.41 80.5001C174.621 79.7287 175.686 78.811 176.604 77.7464C177.558 76.6448 178.33 75.4332 178.917 74.1115L189.932 85.1808C188.536 87.1638 186.921 88.9439 185.085 90.523C183.286 92.1015 181.322 93.4419 179.193 94.543C177.1 95.6447 174.879 96.4707 172.529 97.0216C170.216 97.6089 167.829 97.9028 165.37 97.9028C161.221 97.9028 157.311 97.1315 153.639 95.5895C150.005 94.0474 146.81 91.8999 144.057 89.1462C141.34 86.3925 139.192 83.125 137.613 79.3431C136.035 75.525 135.245 71.3395 135.245 66.7869C135.245 62.1241 136.035 57.8653 137.613 54.0102C139.192 50.1552 141.34 46.8692 144.057 44.1523C146.81 41.4354 150.005 39.3243 153.639 37.819C157.311 36.3137 161.221 35.5611 165.37 35.5611C167.829 35.5611 170.234 35.8548 172.584 36.4422C174.934 37.0297 177.155 37.8741 179.247 38.9755C181.377 40.077 183.36 41.4354 185.195 43.0509C187.031 44.6296 188.647 46.4102 190.042 48.3929L161.845 82.3725ZM169.555 51.3668C168.857 51.1097 168.16 50.9445 167.462 50.8711C166.801 50.7977 166.104 50.7609 165.37 50.7609C163.313 50.7609 161.367 51.1465 159.532 51.9174C157.733 52.6518 156.154 53.7165 154.796 55.1116C153.474 56.5068 152.428 58.1957 151.657 60.1783C150.886 62.1241 150.5 64.327 150.5 66.7869C150.5 67.3376 150.518 67.9618 150.555 68.6594C150.628 69.3569 150.721 70.0728 150.831 70.8072C150.978 71.5047 151.143 72.184 151.326 72.8448C151.51 73.5057 151.748 74.0931 152.042 74.6071L169.555 51.3668Z" fill="black"/>
<path d="M461.035 95.8448H405.743V16.8716H421.548V80.0393H461.035V95.8448Z" fill="#FF5500"/>
<path fill-rule="evenodd" clip-rule="evenodd" d="M314.462 25.9081C318.952 23.3683 322.043 21.6256 324.612 20.4867C327.09 19.3885 328.771 18.9998 330.367 18.9998C331.964 18.9998 333.645 19.3885 336.123 20.4867C338.692 21.6256 341.783 23.3683 346.272 25.9081L346.273 25.9082L352.125 29.2186L352.125 29.2186C357.07 32.0159 360.47 33.9462 362.947 35.7162C365.346 37.4297 366.501 38.7375 367.19 40.1033L367.19 40.1036C367.871 41.4512 368.207 43.07 368.108 45.8407C368.004 48.734 367.454 52.4051 366.637 57.7988L366.637 57.799L365.459 65.573C364.411 72.4917 363.682 77.2398 362.649 80.7914C361.882 83.4301 361.032 85.0859 359.979 86.2783H370.281C370.658 85.3287 370.991 84.3368 371.291 83.304C372.511 79.1097 373.321 73.7653 374.311 67.2313L374.358 66.9215L374.358 66.9212L375.535 59.1472L375.535 59.147L375.574 58.8923L375.574 58.8921C376.343 53.8184 376.977 49.6348 377.102 46.1639C377.233 42.5126 376.828 39.224 375.225 36.0477C373.63 32.8896 371.213 30.5605 368.179 28.3931C365.269 26.3138 361.45 24.1534 356.77 21.5063L356.77 21.5063L356.556 21.3851L356.556 21.3851L350.704 18.0747L350.704 18.0746L350.514 17.9674C346.262 15.5617 342.789 13.5972 339.77 12.2587C336.614 10.8597 333.649 9.99981 330.367 9.99981C327.086 9.99981 324.121 10.8598 320.965 12.2587C317.946 13.597 314.474 15.5611 310.222 17.9664L310.031 18.0747L304.179 21.3851L306.228 25.007L304.179 21.3851L303.966 21.5058C299.286 24.1531 295.466 26.3136 292.556 28.3931C289.522 30.5605 287.104 32.8896 285.51 36.0476C283.907 39.2239 283.502 42.5126 283.633 46.1639C283.758 49.6344 284.392 53.8175 285.16 58.8904L285.199 59.1471L285.199 59.1472L286.377 66.9214L286.377 66.9214L286.424 67.2291C287.414 73.7641 288.224 79.1092 289.443 83.304C289.744 84.3368 290.076 85.3287 290.454 86.2783H300.756C299.702 85.0859 298.853 83.4301 298.086 80.7914C297.053 77.2399 296.324 72.4918 295.276 65.5731L295.276 65.5731L294.098 57.7989L294.098 57.7988C293.281 52.4051 292.731 48.734 292.627 45.8407C292.528 43.0699 292.864 41.4511 293.544 40.1035L293.544 40.1035C294.234 38.7375 295.389 37.4297 297.787 35.7162C300.265 33.9462 303.665 32.0159 308.61 29.2186L314.462 25.9081Z" fill="#FF5500"/>
<path d="M270.068 74.3447C316.395 102.858 342.608 102.781 390.039 74.3447" stroke="#FF5500" stroke-width="8"/>
<path d="M264.947 84.8996C265.334 77.267 266.853 68.5141 274.659 63.4999" stroke="#FF5500" stroke-width="8" stroke-linecap="round"/>
<path d="M394.659 84.8996C394.271 77.267 392.752 68.5141 384.947 63.4999" stroke="#FF5500" stroke-width="8" stroke-linecap="round"/>
<path d="M249.34 98.2138H199.09V19.0703H213.455V82.3743H249.34V98.2138Z" fill="#FF5500"/>
<path d="M60.4246 145.458H68.8846V148.77H56.3206V123.75H60.4246V145.458ZM70.9487 138.762C70.9487 136.77 71.3567 135.006 72.1727 133.47C73.0127 131.934 74.1407 130.746 75.5567 129.906C76.9967 129.042 78.5807 128.61 80.3087 128.61C81.8687 128.61 83.2247 128.922 84.3767 129.546C85.5527 130.146 86.4887 130.902 87.1847 131.814V128.934H91.3247V148.77H87.1847V145.818C86.4887 146.754 85.5407 147.534 84.3407 148.158C83.1407 148.782 81.7727 149.094 80.2367 149.094C78.5327 149.094 76.9727 148.662 75.5567 147.798C74.1407 146.91 73.0127 145.686 72.1727 144.126C71.3567 142.542 70.9487 140.754 70.9487 138.762ZM87.1847 138.834C87.1847 137.466 86.8967 136.278 86.3207 135.27C85.7687 134.262 85.0367 133.494 84.1247 132.966C83.2127 132.438 82.2287 132.174 81.1727 132.174C80.1167 132.174 79.1327 132.438 78.2207 132.966C77.3087 133.47 76.5647 134.226 75.9887 135.234C75.4367 136.218 75.1607 137.394 75.1607 138.762C75.1607 140.13 75.4367 141.33 75.9887 142.362C76.5647 143.394 77.3087 144.186 78.2207 144.738C79.1567 145.266 80.1407 145.53 81.1727 145.53C82.2287 145.53 83.2127 145.266 84.1247 144.738C85.0367 144.21 85.7687 143.442 86.3207 142.434C86.8967 141.402 87.1847 140.202 87.1847 138.834ZM106.723 128.61C108.283 128.61 109.675 128.934 110.899 129.582C112.147 130.23 113.119 131.19 113.815 132.462C114.511 133.734 114.859 135.27 114.859 137.07V148.77H110.791V137.682C110.791 135.906 110.347 134.55 109.459 133.614C108.571 132.654 107.359 132.174 105.823 132.174C104.287 132.174 103.063 132.654 102.151 133.614C101.263 134.55 100.819 135.906 100.819 137.682V148.77H96.7151V128.934H100.819V131.202C101.491 130.386 102.343 129.75 103.375 129.294C104.431 128.838 105.547 128.61 106.723 128.61ZM118.726 138.762C118.726 136.77 119.134 135.006 119.95 133.47C120.79 131.934 121.918 130.746 123.334 129.906C124.774 129.042 126.37 128.61 128.122 128.61C129.418 128.61 130.69 128.898 131.938 129.474C133.21 130.026 134.218 130.77 134.962 131.706V122.13H139.102V148.77H134.962V145.782C134.29 146.742 133.354 147.534 132.154 148.158C130.978 148.782 129.622 149.094 128.086 149.094C126.358 149.094 124.774 148.662 123.334 147.798C121.918 146.91 120.79 145.686 119.95 144.126C119.134 142.542 118.726 140.754 118.726 138.762ZM134.962 138.834C134.962 137.466 134.674 136.278 134.098 135.27C133.546 134.262 132.814 133.494 131.902 132.966C130.99 132.438 130.006 132.174 128.95 132.174C127.894 132.174 126.91 132.438 125.998 132.966C125.086 133.47 124.342 134.226 123.766 135.234C123.214 136.218 122.938 137.394 122.938 138.762C122.938 140.13 123.214 141.33 123.766 142.362C124.342 143.394 125.086 144.186 125.998 144.738C126.934 145.266 127.918 145.53 128.95 145.53C130.006 145.53 130.99 145.266 131.902 144.738C132.814 144.21 133.546 143.442 134.098 142.434C134.674 141.402 134.962 140.202 134.962 138.834ZM168.928 143.658H158.452L156.652 148.77H152.368L161.332 123.714H166.084L175.048 148.77H170.728L168.928 143.658ZM167.776 140.31L163.708 128.682L159.604 140.31H167.776ZM186.146 149.094C184.586 149.094 183.182 148.818 181.934 148.266C180.71 147.69 179.738 146.922 179.018 145.962C178.298 144.978 177.914 143.886 177.866 142.686H182.114C182.186 143.526 182.582 144.234 183.302 144.81C184.046 145.362 184.97 145.638 186.074 145.638C187.226 145.638 188.114 145.422 188.738 144.99C189.386 144.534 189.71 143.958 189.71 143.262C189.71 142.518 189.35 141.966 188.63 141.606C187.934 141.246 186.818 140.85 185.282 140.418C183.794 140.01 182.582 139.614 181.646 139.23C180.71 138.846 179.894 138.258 179.198 137.466C178.526 136.674 178.19 135.63 178.19 134.334C178.19 133.278 178.502 132.318 179.126 131.454C179.75 130.566 180.638 129.87 181.79 129.366C182.966 128.862 184.31 128.61 185.822 128.61C188.078 128.61 189.89 129.186 191.258 130.338C192.65 131.466 193.394 133.014 193.49 134.982H189.386C189.314 134.094 188.954 133.386 188.306 132.858C187.658 132.33 186.782 132.066 185.678 132.066C184.598 132.066 183.77 132.27 183.194 132.678C182.618 133.086 182.33 133.626 182.33 134.298C182.33 134.826 182.522 135.27 182.906 135.63C183.29 135.99 183.758 136.278 184.31 136.494C184.862 136.686 185.678 136.938 186.758 137.25C188.198 137.634 189.374 138.03 190.286 138.438C191.222 138.822 192.026 139.398 192.698 140.166C193.37 140.934 193.718 141.954 193.742 143.226C193.742 144.354 193.43 145.362 192.806 146.25C192.182 147.138 191.294 147.834 190.142 148.338C189.014 148.842 187.682 149.094 186.146 149.094ZM205.376 149.094C203.816 149.094 202.412 148.818 201.164 148.266C199.94 147.69 198.968 146.922 198.248 145.962C197.528 144.978 197.144 143.886 197.096 142.686H201.344C201.416 143.526 201.812 144.234 202.532 144.81C203.276 145.362 204.2 145.638 205.304 145.638C206.456 145.638 207.344 145.422 207.968 144.99C208.616 144.534 208.94 143.958 208.94 143.262C208.94 142.518 208.58 141.966 207.86 141.606C207.164 141.246 206.048 140.85 204.512 140.418C203.024 140.01 201.812 139.614 200.876 139.23C199.94 138.846 199.124 138.258 198.428 137.466C197.756 136.674 197.42 135.63 197.42 134.334C197.42 133.278 197.732 132.318 198.356 131.454C198.98 130.566 199.868 129.87 201.02 129.366C202.196 128.862 203.54 128.61 205.052 128.61C207.308 128.61 209.12 129.186 210.488 130.338C211.88 131.466 212.624 133.014 212.72 134.982H208.616C208.544 134.094 208.184 133.386 207.536 132.858C206.888 132.33 206.012 132.066 204.908 132.066C203.828 132.066 203 132.27 202.424 132.678C201.848 133.086 201.56 133.626 201.56 134.298C201.56 134.826 201.752 135.27 202.136 135.63C202.52 135.99 202.988 136.278 203.54 136.494C204.092 136.686 204.908 136.938 205.988 137.25C207.428 137.634 208.604 138.03 209.516 138.438C210.452 138.822 211.256 139.398 211.928 140.166C212.6 140.934 212.948 141.954 212.972 143.226C212.972 144.354 212.66 145.362 212.036 146.25C211.412 147.138 210.524 147.834 209.372 148.338C208.244 148.842 206.912 149.094 205.376 149.094ZM235.587 138.366C235.587 139.11 235.539 139.782 235.443 140.382H220.287C220.407 141.966 220.995 143.238 222.051 144.198C223.107 145.158 224.403 145.638 225.939 145.638C228.147 145.638 229.707 144.714 230.619 142.866H235.047C234.447 144.69 233.355 146.19 231.771 147.366C230.211 148.518 228.267 149.094 225.939 149.094C224.043 149.094 222.339 148.674 220.827 147.834C219.339 146.97 218.163 145.77 217.299 144.234C216.459 142.674 216.039 140.874 216.039 138.834C216.039 136.794 216.447 135.006 217.263 133.47C218.103 131.91 219.267 130.71 220.755 129.87C222.267 129.03 223.995 128.61 225.939 128.61C227.811 128.61 229.479 129.018 230.943 129.834C232.407 130.65 233.547 131.802 234.363 133.29C235.179 134.754 235.587 136.446 235.587 138.366ZM231.303 137.07C231.279 135.558 230.739 134.346 229.683 133.434C228.627 132.522 227.319 132.066 225.759 132.066C224.343 132.066 223.131 132.522 222.123 133.434C221.115 134.322 220.515 135.534 220.323 137.07H231.303ZM244.413 132.282V143.262C244.413 144.006 244.581 144.546 244.917 144.882C245.277 145.194 245.877 145.35 246.717 145.35H249.237V148.77H245.997C244.149 148.77 242.733 148.338 241.749 147.474C240.765 146.61 240.273 145.206 240.273 143.262V132.282H237.933V128.934H240.273V124.002H244.413V128.934H249.237V132.282H244.413ZM266.475 145.458H274.935V148.77H262.371V123.75H266.475V145.458ZM280.455 126.306C279.711 126.306 279.087 126.054 278.583 125.55C278.079 125.046 277.827 124.422 277.827 123.678C277.827 122.934 278.079 122.31 278.583 121.806C279.087 121.302 279.711 121.05 280.455 121.05C281.175 121.05 281.787 121.302 282.291 121.806C282.795 122.31 283.047 122.934 283.047 123.678C283.047 124.422 282.795 125.046 282.291 125.55C281.787 126.054 281.175 126.306 280.455 126.306ZM282.471 128.934V148.77H278.367V128.934H282.471ZM286.492 138.762C286.492 136.77 286.9 135.006 287.716 133.47C288.556 131.934 289.684 130.746 291.1 129.906C292.54 129.042 294.124 128.61 295.852 128.61C297.412 128.61 298.768 128.922 299.92 129.546C301.096 130.146 302.032 130.902 302.728 131.814V128.934H306.868V148.77H302.728V145.818C302.032 146.754 301.084 147.534 299.884 148.158C298.684 148.782 297.316 149.094 295.78 149.094C294.076 149.094 292.516 148.662 291.1 147.798C289.684 146.91 288.556 145.686 287.716 144.126C286.9 142.542 286.492 140.754 286.492 138.762ZM302.728 138.834C302.728 137.466 302.44 136.278 301.864 135.27C301.312 134.262 300.58 133.494 299.668 132.966C298.756 132.438 297.772 132.174 296.716 132.174C295.66 132.174 294.676 132.438 293.764 132.966C292.852 133.47 292.108 134.226 291.532 135.234C290.98 136.218 290.704 137.394 290.704 138.762C290.704 140.13 290.98 141.33 291.532 142.362C292.108 143.394 292.852 144.186 293.764 144.738C294.7 145.266 295.684 145.53 296.716 145.53C297.772 145.53 298.756 145.266 299.668 144.738C300.58 144.21 301.312 143.442 301.864 142.434C302.44 141.402 302.728 140.202 302.728 138.834ZM319.458 149.094C317.898 149.094 316.494 148.818 315.246 148.266C314.022 147.69 313.05 146.922 312.33 145.962C311.61 144.978 311.226 143.886 311.178 142.686H315.426C315.498 143.526 315.894 144.234 316.614 144.81C317.358 145.362 318.282 145.638 319.386 145.638C320.538 145.638 321.426 145.422 322.05 144.99C322.698 144.534 323.022 143.958 323.022 143.262C323.022 142.518 322.662 141.966 321.942 141.606C321.246 141.246 320.13 140.85 318.594 140.418C317.106 140.01 315.894 139.614 314.958 139.23C314.022 138.846 313.206 138.258 312.51 137.466C311.838 136.674 311.502 135.63 311.502 134.334C311.502 133.278 311.814 132.318 312.438 131.454C313.062 130.566 313.95 129.87 315.102 129.366C316.278 128.862 317.622 128.61 319.134 128.61C321.39 128.61 323.202 129.186 324.57 130.338C325.962 131.466 326.706 133.014 326.802 134.982H322.698C322.626 134.094 322.266 133.386 321.618 132.858C320.97 132.33 320.094 132.066 318.99 132.066C317.91 132.066 317.082 132.27 316.506 132.678C315.93 133.086 315.642 133.626 315.642 134.298C315.642 134.826 315.834 135.27 316.218 135.63C316.602 135.99 317.07 136.278 317.622 136.494C318.174 136.686 318.99 136.938 320.07 137.25C321.51 137.634 322.686 138.03 323.598 138.438C324.534 138.822 325.338 139.398 326.01 140.166C326.682 140.934 327.03 141.954 327.054 143.226C327.054 144.354 326.742 145.362 326.118 146.25C325.494 147.138 324.606 147.834 323.454 148.338C322.326 148.842 320.994 149.094 319.458 149.094ZM340.093 149.094C338.221 149.094 336.529 148.674 335.017 147.834C333.505 146.97 332.317 145.77 331.453 144.234C330.589 142.674 330.157 140.874 330.157 138.834C330.157 136.818 330.601 135.03 331.489 133.47C332.377 131.91 333.589 130.71 335.125 129.87C336.661 129.03 338.377 128.61 340.273 128.61C342.169 128.61 343.885 129.03 345.421 129.87C346.957 130.71 348.169 131.91 349.057 133.47C349.945 135.03 350.389 136.818 350.389 138.834C350.389 140.85 349.933 142.638 349.021 144.198C348.109 145.758 346.861 146.97 345.277 147.834C343.717 148.674 341.989 149.094 340.093 149.094ZM340.093 145.53C341.149 145.53 342.133 145.278 343.045 144.774C343.981 144.27 344.737 143.514 345.313 142.506C345.889 141.498 346.177 140.274 346.177 138.834C346.177 137.394 345.901 136.182 345.349 135.198C344.797 134.19 344.065 133.434 343.153 132.93C342.241 132.426 341.257 132.174 340.201 132.174C339.145 132.174 338.161 132.426 337.249 132.93C336.361 133.434 335.653 134.19 335.125 135.198C334.597 136.182 334.333 137.394 334.333 138.834C334.333 140.97 334.873 142.626 335.953 143.802C337.057 144.954 338.437 145.53 340.093 145.53ZM364.454 128.61C366.014 128.61 367.406 128.934 368.63 129.582C369.878 130.23 370.85 131.19 371.546 132.462C372.242 133.734 372.59 135.27 372.59 137.07V148.77H368.522V137.682C368.522 135.906 368.078 134.55 367.19 133.614C366.302 132.654 365.09 132.174 363.554 132.174C362.018 132.174 360.794 132.654 359.882 133.614C358.994 134.55 358.55 135.906 358.55 137.682V148.77H354.446V128.934H358.55V131.202C359.222 130.386 360.074 129.75 361.106 129.294C362.162 128.838 363.278 128.61 364.454 128.61ZM396.005 138.366C396.005 139.11 395.957 139.782 395.861 140.382H380.705C380.825 141.966 381.413 143.238 382.469 144.198C383.525 145.158 384.821 145.638 386.357 145.638C388.565 145.638 390.125 144.714 391.037 142.866H395.465C394.865 144.69 393.773 146.19 392.189 147.366C390.629 148.518 388.685 149.094 386.357 149.094C384.461 149.094 382.757 148.674 381.245 147.834C379.757 146.97 378.581 145.77 377.717 144.234C376.877 142.674 376.457 140.874 376.457 138.834C376.457 136.794 376.865 135.006 377.681 133.47C378.521 131.91 379.685 130.71 381.173 129.87C382.685 129.03 384.413 128.61 386.357 128.61C388.229 128.61 389.897 129.018 391.361 129.834C392.825 130.65 393.965 131.802 394.781 133.29C395.597 134.754 396.005 136.446 396.005 138.366ZM391.721 137.07C391.697 135.558 391.157 134.346 390.101 133.434C389.045 132.522 387.737 132.066 386.177 132.066C384.761 132.066 383.549 132.522 382.541 133.434C381.533 134.322 380.933 135.534 380.741 137.07H391.721ZM404.147 131.814C404.747 130.806 405.539 130.026 406.523 129.474C407.531 128.898 408.719 128.61 410.087 128.61V132.858H409.043C407.435 132.858 406.211 133.266 405.371 134.082C404.555 134.898 404.147 136.314 404.147 138.33V148.77H400.043V128.934H404.147V131.814Z" fill="#616161"/>
</svg>
