<svg xmlns="http://www.w3.org/2000/svg" width="80" height="46" viewBox="0 0 80 46" fill="none">
  <path d="M73.0667 5.02022C72.7285 4.22403 72.0812 3.59132 71.2667 3.26067C70.866 3.09371 70.4356 3.00515 70.0001 3H53.3334C52.4493 3 51.6015 3.3433 50.9764 3.95437C50.3512 4.56545 50.0001 5.39424 50.0001 6.25843C50.0001 7.12262 50.3512 7.95141 50.9764 8.56248C51.6015 9.17356 52.4493 9.51685 53.3334 9.51685H61.9667L43.3334 27.7315L32.3667 16.9787C32.0568 16.6732 31.6882 16.4308 31.282 16.2654C30.8758 16.1 30.4401 16.0148 30.0001 16.0148C29.56 16.0148 29.1243 16.1 28.7181 16.2654C28.3119 16.4308 27.9433 16.6732 27.6334 16.9787L7.63339 36.5292C7.32097 36.8321 7.07299 37.1925 6.90376 37.5896C6.73453 37.9867 6.6474 38.4126 6.6474 38.8427C6.6474 39.2729 6.73453 39.6987 6.90376 40.0958C7.07299 40.4929 7.32097 40.8533 7.63339 41.1562C7.94327 41.4616 8.31194 41.704 8.71814 41.8694C9.12434 42.0349 9.56002 42.12 10.0001 42.12C10.4401 42.12 10.8758 42.0349 11.282 41.8694C11.6882 41.704 12.0569 41.4616 12.3667 41.1562L30.0001 23.8865L40.9667 34.6393C41.2766 34.9447 41.6453 35.1871 42.0515 35.3526C42.4577 35.518 42.8934 35.6032 43.3334 35.6032C43.7734 35.6032 44.2091 35.518 44.6153 35.3526C45.0215 35.1871 45.3902 34.9447 45.7001 34.6393L66.6667 14.1112V22.5506C66.6667 23.4148 67.0179 24.2435 67.643 24.8546C68.2682 25.4657 69.116 25.809 70.0001 25.809C70.8841 25.809 71.732 25.4657 72.3571 24.8546C72.9822 24.2435 73.3334 23.4148 73.3334 22.5506V6.25843C73.3281 5.83263 73.2375 5.41196 73.0667 5.02022Z" fill="#00A529"/>
</svg>